<svg width="489" height="277" viewBox="0 0 489 277" fill="none" xmlns="http://www.w3.org/2000/svg">
<path d="M87.618 131.414C73.4226 131.414 61.9112 119.902 61.9112 105.707C61.9112 91.5114 73.4226 80 87.618 80C101.813 80 113.325 91.5114 113.325 105.707C113.325 119.902 101.813 131.414 87.618 131.414Z" fill="#333F72"/>
<path d="M99.7855 125.39C96.1472 128.014 91.6738 129.565 86.8426 129.565C76.1662 129.565 67.2195 121.93 65.2513 111.731C68.8896 109.107 73.3629 107.556 78.1942 107.556C88.8705 107.556 97.8173 115.25 99.7855 125.39Z" fill="#F3EDE1"/>
<path d="M110.462 147.339V157.956C110.462 178.116 94.0596 194.518 73.8997 194.518H66.7424C46.5228 194.518 30.1802 178.116 30.1802 157.956V147.339C30.1802 127.119 46.5228 110.717 66.7424 110.717H73.8997C94.0596 110.717 110.462 127.119 110.462 147.339Z" fill="#333F72"/>
<path d="M100.8 153.9V197.023C100.8 202.809 96.0876 207.461 90.302 207.461" stroke="#333F72" stroke-width="4"/>
<path d="M0.775375 276.291L2.86294 265.793C4.9505 255.654 9.12565 246.349 15.3287 238.059C22.8439 227.979 33.0431 220.165 44.6738 215.513L44.7931 215.394H44.9124L45.2703 215.274C53.2627 212.113 61.7323 210.503 70.5 210.503C79.2081 210.503 87.6777 212.113 95.7297 215.274L95.849 215.334C107.718 219.986 118.037 227.859 125.731 238.059C131.874 246.349 136.05 255.654 138.137 265.793L140.284 276.291H0.775375Z" fill="#E56E0C"/>
<path fill-rule="evenodd" clip-rule="evenodd" d="M95.9683 214.737H96.0279C108.017 219.449 118.454 227.382 126.208 237.701C132.411 246.051 136.646 255.475 138.734 265.674L140.702 275.456L141 276.887H0L0.298223 275.456L2.26649 265.674C4.35405 255.475 8.58881 246.051 14.8515 237.701C22.4264 227.561 32.6256 219.748 44.3756 214.976L44.5546 214.797H44.8528L45.0317 214.737C53.1434 211.517 61.6726 209.906 70.5 209.906C79.2678 209.906 87.8566 211.517 95.9683 214.737ZM70.5 211.099C61.7323 211.099 53.2627 212.769 45.4493 215.811C45.33 215.891 45.1908 215.95 45.0317 215.99C33.401 220.642 23.2614 228.456 15.8058 238.416C9.84137 246.349 5.54695 255.654 3.45938 265.913L1.49112 275.694H139.509L137.541 265.913C135.453 255.654 131.159 246.349 125.254 238.416C117.619 228.336 107.36 220.463 95.5508 215.811H95.4911C87.7373 212.769 79.2678 211.099 70.5 211.099Z" fill="#F3EDE1"/>
<path d="M34.2957 229.47C31.1345 229.47 31.1345 234.361 34.2957 234.361C37.4569 234.361 37.4569 229.47 34.2957 229.47Z" fill="#F3EDE1"/>
<path d="M102.291 229.47C99.1295 229.47 99.1295 234.361 102.291 234.361C105.452 234.361 105.452 229.47 102.291 229.47Z" fill="#F3EDE1"/>
<path d="M119.289 242.413C116.128 242.413 116.128 247.303 119.289 247.303C122.451 247.303 122.451 242.413 119.289 242.413Z" fill="#F3EDE1"/>
<path d="M94.3579 242.413C91.1967 242.413 91.1967 247.303 94.3579 247.303C97.5191 247.303 97.5191 242.413 94.3579 242.413Z" fill="#F3EDE1"/>
<path d="M69.4264 242.413C66.2652 242.413 66.2652 247.303 69.4264 247.303C72.5876 247.303 72.5876 242.413 69.4264 242.413Z" fill="#F3EDE1"/>
<path d="M44.4949 242.413C41.3934 242.413 41.3934 247.303 44.4949 247.303C47.6561 247.303 47.6561 242.413 44.4949 242.413Z" fill="#F3EDE1"/>
<path d="M19.6231 242.413C16.4619 242.413 16.4619 247.303 19.6231 247.303C22.7843 247.303 22.7843 242.413 19.6231 242.413Z" fill="#F3EDE1"/>
<path d="M127.759 254.819C124.598 254.819 124.598 259.709 127.759 259.709C130.92 259.709 130.92 254.819 127.759 254.819Z" fill="#F3EDE1"/>
<path d="M102.827 254.819C99.6663 254.819 99.6663 259.709 102.827 259.709C105.989 259.709 105.989 254.819 102.827 254.819Z" fill="#F3EDE1"/>
<path d="M77.8959 254.819C74.7944 254.819 74.7944 259.709 77.8959 259.709C81.0571 259.709 81.0571 254.819 77.8959 254.819Z" fill="#F3EDE1"/>
<path d="M53.0241 254.819C49.8629 254.819 49.8629 259.709 53.0241 259.709C56.1256 259.709 56.1256 254.819 53.0241 254.819Z" fill="#F3EDE1"/>
<path d="M28.0926 254.819C24.9315 254.819 24.9315 259.709 28.0926 259.709C31.2538 259.709 31.2538 254.819 28.0926 254.819Z" fill="#F3EDE1"/>
<path d="M116.904 267.165C113.742 267.165 113.742 272.115 116.904 272.115C120.065 272.115 120.065 267.165 116.904 267.165Z" fill="#F3EDE1"/>
<path d="M91.9721 267.165C88.8706 267.165 88.8706 272.115 91.9721 272.115C95.1332 272.115 95.1332 267.165 91.9721 267.165Z" fill="#F3EDE1"/>
<path d="M67.1003 267.165C63.9391 267.165 63.9391 272.115 67.1003 272.115C70.2614 272.115 70.2614 267.165 67.1003 267.165Z" fill="#F3EDE1"/>
<path d="M42.1688 267.165C39.0077 267.165 39.0077 272.115 42.1688 272.115C45.33 272.115 45.33 267.165 42.1688 267.165Z" fill="#F3EDE1"/>
<path d="M17.2373 267.165C14.0761 267.165 14.0761 272.115 17.2373 272.115C20.3985 272.115 20.3985 267.165 17.2373 267.165Z" fill="#F3EDE1"/>
<path d="M56.7817 240.921C50.7576 240.921 45.9264 236.031 45.9264 230.066V216.169C53.7399 213.067 61.9708 211.517 70.5 211.517C78.9696 211.517 87.2601 213.067 95.0736 216.169V230.066C95.0736 236.031 90.2424 240.921 84.2183 240.921H56.7817Z" fill="#F3EDE1"/>
<path fill-rule="evenodd" clip-rule="evenodd" d="M95.4911 215.811H95.5508V230.066C95.5508 236.269 90.481 241.339 84.2183 241.339H56.7817C50.519 241.339 45.4492 236.269 45.4492 230.066V215.811C53.2627 212.769 61.7322 211.099 70.5 211.099C79.2678 211.099 87.7373 212.769 95.4911 215.811ZM70.5 211.994C62.1498 211.994 54.0381 213.485 46.3439 216.467V230.066C46.3439 235.792 51.0558 240.444 56.7817 240.444H84.2183C90.0038 240.444 94.6561 235.792 94.6561 230.066V216.467C86.9619 213.485 78.8503 211.994 70.5 211.994Z" fill="#333F72"/>
<path d="M42.2881 176.267C37.2183 180.74 29.5241 180.263 24.9911 175.193C20.5178 170.123 20.9949 162.369 26.0647 157.896C31.1345 153.423 38.8884 153.9 43.3617 158.97" fill="#F3EDE1"/>
<path d="M42.2881 176.267C37.2183 180.74 29.5241 180.263 24.9911 175.193C20.5178 170.123 20.9949 162.369 26.0647 157.896C31.1345 153.423 38.8884 153.9 43.3617 158.97" stroke="#333F72" stroke-width="1.5"/>
<path d="M58.5711 219.39V189.09H82.4886V219.39" fill="#F3EDE1"/>
<path d="M58.5711 219.39V189.09H82.4886V219.39" stroke="#333F72" stroke-width="1.5"/>
<path d="M81.9518 192.192V202.629C77.4784 205.075 72.2894 206.447 66.802 206.447C64.1379 206.447 61.5533 206.129 59.0482 205.492V192.192H81.9518Z" fill="#F3CFBF"/>
<path d="M99.7855 150.023V164.755C99.7855 173.94 96.0279 182.171 90.0635 188.196C84.099 194.16 75.8084 197.858 66.6231 197.858C53.0838 197.858 41.3934 189.746 36.3236 178.056C34.5343 173.94 33.5203 169.467 33.5203 164.755V150.023C33.5203 131.712 48.3718 116.92 66.6231 116.92C84.934 116.92 99.7855 131.712 99.7855 150.023Z" fill="#F3EDE1" stroke="#333F72" stroke-width="1.5"/>
<path d="M90.481 168.513C90.481 172.926 86.9023 176.505 82.4886 176.505C78.0749 176.505 74.4366 172.926 74.4366 168.513C74.4366 164.099 78.0749 160.52 82.4886 160.52C86.9023 160.52 90.481 164.099 90.481 168.513Z" fill="#F3CFBF"/>
<path d="M52.6066 168.513C52.6066 172.926 49.0279 176.505 44.6142 176.505C40.2005 176.505 36.6218 172.926 36.6218 168.513C36.6218 164.099 40.2005 160.52 44.6142 160.52C49.0279 160.52 52.6066 164.099 52.6066 168.513Z" fill="#F3CFBF"/>
<path d="M80.401 160.52C80.401 162.19 79.0888 163.503 77.4188 163.503C75.8084 163.503 74.4366 162.19 74.4366 160.52C74.4366 158.91 75.8084 157.538 77.4188 157.538C79.0888 157.538 80.401 158.91 80.401 160.52Z" fill="#333F72"/>
<path d="M51.7119 160.52C51.7119 162.19 50.3998 163.503 48.7297 163.503C47.1193 163.503 45.7475 162.19 45.7475 160.52C45.7475 158.91 47.1193 157.538 48.7297 157.538C50.3998 157.538 51.7119 158.91 51.7119 160.52Z" fill="#333F72"/>
<path d="M64.4759 174.06H56.8414L66.6231 117.099" fill="#F3EDE1"/>
<path d="M64.4759 174.06H56.8414L66.6231 117.099" stroke="#333F72" stroke-width="1.5"/>
<path d="M58.5711 180.68C63.7602 185.929 68.651 180.68 68.651 180.68" stroke="#333F72" stroke-width="1.5"/>
<path d="M41.5127 149.904C41.5127 149.904 43.1231 146.086 47.0596 145.192C49.7436 144.595 52.6066 145.907 52.6066 149.904H41.5127Z" fill="#333F72"/>
<path d="M73.8401 149.904C73.8401 145.907 76.703 144.595 79.3871 145.192C83.3236 146.086 84.8744 149.904 84.8744 149.904H73.8401Z" fill="#333F72"/>
<path d="M95.5508 158.97C100.024 153.9 107.778 153.423 112.848 157.896C117.918 162.369 118.395 170.123 113.921 175.193C109.388 180.263 101.694 180.74 96.6244 176.267" fill="#F3EDE1"/>
<path d="M95.5508 158.97C100.024 153.9 107.778 153.423 112.848 157.896C117.918 162.369 118.395 170.123 113.921 175.193C109.388 180.263 101.694 180.74 96.6244 176.267" stroke="#333F72" stroke-width="1.5"/>
<path d="M102.47 169.885L108.792 163.741" stroke="#333F72" stroke-width="1.5"/>
<path d="M43.1231 207.461C37.3376 207.461 32.6853 202.809 32.6853 197.023V153.9" stroke="#333F72" stroke-width="4"/>
<path d="M66.6231 114.534C96.7437 114.534 100.8 140.778 100.8 140.778C100.8 140.778 83.0254 140.778 70.2614 140.778C52.9645 140.778 50.6383 131.294 50.6383 131.294C50.6383 131.294 49.8033 140.778 33.5203 140.778C33.5203 140.778 41.8109 114.534 66.6231 114.534Z" fill="#333F72"/>
<mask id="path-46-inside-1_1_2562" fill="white">
<path fill-rule="evenodd" clip-rule="evenodd" d="M219.654 144.434C228.79 152.323 243.989 156.117 258.704 155.997C266.04 155.938 273.197 154.905 279.345 152.957C285.504 151.005 290.576 148.159 293.827 144.524C294.03 144.298 294.324 144.176 294.628 144.193C294.931 144.21 295.211 144.364 295.387 144.611C297.281 147.272 301.038 149.593 305.976 151.305C310.882 153.006 316.816 154.059 322.887 154.281C328.959 154.504 335.125 153.896 340.5 152.308C345.884 150.717 350.397 148.167 353.273 144.567C353.513 144.267 353.904 144.13 354.278 144.217C367.304 147.215 386.648 149.719 402.392 147.544C410.27 146.455 417.128 144.211 421.855 140.382C426.524 136.599 429.19 131.213 428.628 123.579C428.605 123.267 428.729 122.963 428.963 122.756C429.196 122.55 429.513 122.464 429.82 122.524C448.723 126.269 462.643 119.918 471.863 110.837C481.139 101.7 485.616 89.8438 485.616 82.7261C485.616 82.6404 485.627 82.5551 485.649 82.4722C486.862 77.8512 485.747 69.6716 480.779 62.3453C475.851 55.0792 467.144 48.6819 453.212 47.5816C452.822 47.5508 452.486 47.2956 452.352 46.9283C447.125 32.645 435.446 24.7426 423.064 20.4454C410.675 16.1452 397.701 15.5028 390.156 15.6753C389.973 15.6795 389.793 15.6337 389.635 15.5428C374.875 7.0654 363.079 3.51986 350.96 3.05399C338.802 2.5866 326.249 5.21323 309.925 9.22139C309.742 9.26638 309.549 9.25861 309.37 9.19899C296.929 5.05495 286.271 2.35711 275.65 2.0329C265.049 1.70932 254.428 3.74962 242.076 9.16607C241.87 9.25625 241.64 9.27457 241.423 9.21808C222.763 4.36847 210.054 2.14022 198.686 2.7157C187.347 3.28972 177.26 6.65833 163.856 13.1657C163.715 13.234 163.56 13.2684 163.404 13.266C149.092 13.0437 138.831 14.4281 132.172 17.9556C128.869 19.705 126.469 21.9733 124.884 24.8334C123.295 27.7013 122.49 31.2318 122.49 35.558C122.49 36.0315 122.158 36.44 121.694 36.5369C107.53 39.4981 98.9998 44.3543 95.0124 49.9351C91.0994 55.4118 91.4198 61.8041 95.5216 68.3592C95.7404 68.7089 95.7221 69.1571 95.4754 69.4877C90.0026 76.8231 86.7193 82.2536 87.0188 87.6915C87.3153 93.0767 91.1698 98.8283 101.142 106.655C101.439 106.889 101.58 107.27 101.505 107.641C100.719 111.51 100.984 114.659 102.073 117.215C103.161 119.766 105.112 121.825 107.876 123.446C113.453 126.718 122.207 128.128 133.191 128.128C133.743 128.128 134.191 128.575 134.191 129.128C134.191 131.339 134.943 133.074 136.29 134.443C137.661 135.836 139.701 136.901 142.34 137.628C147.63 139.086 155.03 139.104 163.288 138.006C163.573 137.968 163.861 138.055 164.078 138.245C164.295 138.434 164.419 138.709 164.419 138.997C164.419 139.259 164.609 139.784 165.33 140.545C166.02 141.274 167.076 142.089 168.485 142.921C171.298 144.582 175.394 146.237 180.427 147.384C190.484 149.677 204.173 149.92 218.636 144.26C218.982 144.125 219.374 144.192 219.654 144.434ZM279.949 154.864C285.84 152.997 290.944 150.286 294.506 146.717C296.878 149.434 300.753 151.611 305.321 153.195C310.441 154.97 316.574 156.051 322.814 156.28C329.053 156.509 335.442 155.888 341.067 154.226C346.453 152.634 351.212 150.066 354.432 146.303C367.564 149.267 386.825 151.713 402.666 149.525C410.703 148.414 417.979 146.096 423.114 141.936C428.032 137.951 430.916 132.332 430.69 124.722C449.669 128.086 463.828 121.558 473.266 112.261C482.804 102.867 487.564 90.6028 487.616 82.8542C488.95 77.5569 487.619 68.8677 482.434 61.2228C477.244 53.5707 468.182 46.9336 454.006 45.6419C448.395 30.9746 436.261 22.9086 423.72 18.5559C411.171 14.2003 398.098 13.5166 390.389 13.6699C375.53 5.17054 363.483 1.53393 351.037 1.05547C338.635 0.578694 325.905 3.24367 309.728 7.2103C297.342 3.09725 286.545 0.364522 275.711 0.0338336C264.87 -0.297084 254.047 1.77825 241.591 7.19545C223.081 2.39751 210.207 0.129933 198.585 0.718267C186.926 1.30845 176.609 4.76758 163.197 11.2626C148.96 11.0584 138.334 12.4282 131.235 16.1883C127.639 18.0932 124.932 20.6192 123.135 23.8642C121.448 26.9081 120.595 30.5252 120.499 34.7467C106.611 37.7616 97.7279 42.6943 93.3851 48.7724C89.0109 54.8945 89.3848 61.96 93.4689 68.8343C88.2802 75.8367 84.6852 81.6897 85.0218 87.8015C85.3644 94.0217 89.7357 100.158 99.4282 107.851C98.7265 111.755 99.011 115.131 100.234 117.999C101.521 121.02 103.808 123.379 106.864 125.171C112.748 128.623 121.603 130.045 132.235 130.124C132.44 132.403 133.356 134.312 134.865 135.846C135.131 136.116 135.415 136.374 135.714 136.619C134.737 138.855 131.251 143.862 124.244 151.315C123.533 152.071 122.785 152.853 122 153.66C122.401 153.32 123.071 152.996 124.019 152.537C124.275 152.413 124.551 152.279 124.848 152.132C128.015 150.568 133.51 147.548 141.537 139.48C141.627 139.506 141.718 139.531 141.809 139.556C147.275 141.062 154.637 141.099 162.644 140.105C162.899 140.748 163.348 141.361 163.878 141.921C164.737 142.828 165.96 143.753 167.468 144.643C170.491 146.428 174.788 148.15 179.982 149.334C190.248 151.674 204.128 151.941 218.807 146.338C228.493 154.401 243.994 158.117 258.72 157.997C266.222 157.936 273.582 156.881 279.949 154.864ZM136.534 137.232C137.672 138.009 138.995 138.64 140.461 139.142C135.068 144.511 130.872 147.537 127.809 149.382C127.495 149.571 127.192 149.748 126.9 149.915C129.914 146.597 132.169 143.825 133.768 141.634C134.899 140.082 135.715 138.806 136.238 137.822C136.348 137.616 136.447 137.419 136.534 137.232Z"/>
</mask>
<path fill-rule="evenodd" clip-rule="evenodd" d="M219.654 144.434C228.79 152.323 243.989 156.117 258.704 155.997C266.04 155.938 273.197 154.905 279.345 152.957C285.504 151.005 290.576 148.159 293.827 144.524C294.03 144.298 294.324 144.176 294.628 144.193C294.931 144.21 295.211 144.364 295.387 144.611C297.281 147.272 301.038 149.593 305.976 151.305C310.882 153.006 316.816 154.059 322.887 154.281C328.959 154.504 335.125 153.896 340.5 152.308C345.884 150.717 350.397 148.167 353.273 144.567C353.513 144.267 353.904 144.13 354.278 144.217C367.304 147.215 386.648 149.719 402.392 147.544C410.27 146.455 417.128 144.211 421.855 140.382C426.524 136.599 429.19 131.213 428.628 123.579C428.605 123.267 428.729 122.963 428.963 122.756C429.196 122.55 429.513 122.464 429.82 122.524C448.723 126.269 462.643 119.918 471.863 110.837C481.139 101.7 485.616 89.8438 485.616 82.7261C485.616 82.6404 485.627 82.5551 485.649 82.4722C486.862 77.8512 485.747 69.6716 480.779 62.3453C475.851 55.0792 467.144 48.6819 453.212 47.5816C452.822 47.5508 452.486 47.2956 452.352 46.9283C447.125 32.645 435.446 24.7426 423.064 20.4454C410.675 16.1452 397.701 15.5028 390.156 15.6753C389.973 15.6795 389.793 15.6337 389.635 15.5428C374.875 7.0654 363.079 3.51986 350.96 3.05399C338.802 2.5866 326.249 5.21323 309.925 9.22139C309.742 9.26638 309.549 9.25861 309.37 9.19899C296.929 5.05495 286.271 2.35711 275.65 2.0329C265.049 1.70932 254.428 3.74962 242.076 9.16607C241.87 9.25625 241.64 9.27457 241.423 9.21808C222.763 4.36847 210.054 2.14022 198.686 2.7157C187.347 3.28972 177.26 6.65833 163.856 13.1657C163.715 13.234 163.56 13.2684 163.404 13.266C149.092 13.0437 138.831 14.4281 132.172 17.9556C128.869 19.705 126.469 21.9733 124.884 24.8334C123.295 27.7013 122.49 31.2318 122.49 35.558C122.49 36.0315 122.158 36.44 121.694 36.5369C107.53 39.4981 98.9998 44.3543 95.0124 49.9351C91.0994 55.4118 91.4198 61.8041 95.5216 68.3592C95.7404 68.7089 95.7221 69.1571 95.4754 69.4877C90.0026 76.8231 86.7193 82.2536 87.0188 87.6915C87.3153 93.0767 91.1698 98.8283 101.142 106.655C101.439 106.889 101.58 107.27 101.505 107.641C100.719 111.51 100.984 114.659 102.073 117.215C103.161 119.766 105.112 121.825 107.876 123.446C113.453 126.718 122.207 128.128 133.191 128.128C133.743 128.128 134.191 128.575 134.191 129.128C134.191 131.339 134.943 133.074 136.29 134.443C137.661 135.836 139.701 136.901 142.34 137.628C147.63 139.086 155.03 139.104 163.288 138.006C163.573 137.968 163.861 138.055 164.078 138.245C164.295 138.434 164.419 138.709 164.419 138.997C164.419 139.259 164.609 139.784 165.33 140.545C166.02 141.274 167.076 142.089 168.485 142.921C171.298 144.582 175.394 146.237 180.427 147.384C190.484 149.677 204.173 149.92 218.636 144.26C218.982 144.125 219.374 144.192 219.654 144.434ZM279.949 154.864C285.84 152.997 290.944 150.286 294.506 146.717C296.878 149.434 300.753 151.611 305.321 153.195C310.441 154.97 316.574 156.051 322.814 156.28C329.053 156.509 335.442 155.888 341.067 154.226C346.453 152.634 351.212 150.066 354.432 146.303C367.564 149.267 386.825 151.713 402.666 149.525C410.703 148.414 417.979 146.096 423.114 141.936C428.032 137.951 430.916 132.332 430.69 124.722C449.669 128.086 463.828 121.558 473.266 112.261C482.804 102.867 487.564 90.6028 487.616 82.8542C488.95 77.5569 487.619 68.8677 482.434 61.2228C477.244 53.5707 468.182 46.9336 454.006 45.6419C448.395 30.9746 436.261 22.9086 423.72 18.5559C411.171 14.2003 398.098 13.5166 390.389 13.6699C375.53 5.17054 363.483 1.53393 351.037 1.05547C338.635 0.578694 325.905 3.24367 309.728 7.2103C297.342 3.09725 286.545 0.364522 275.711 0.0338336C264.87 -0.297084 254.047 1.77825 241.591 7.19545C223.081 2.39751 210.207 0.129933 198.585 0.718267C186.926 1.30845 176.609 4.76758 163.197 11.2626C148.96 11.0584 138.334 12.4282 131.235 16.1883C127.639 18.0932 124.932 20.6192 123.135 23.8642C121.448 26.9081 120.595 30.5252 120.499 34.7467C106.611 37.7616 97.7279 42.6943 93.3851 48.7724C89.0109 54.8945 89.3848 61.96 93.4689 68.8343C88.2802 75.8367 84.6852 81.6897 85.0218 87.8015C85.3644 94.0217 89.7357 100.158 99.4282 107.851C98.7265 111.755 99.011 115.131 100.234 117.999C101.521 121.02 103.808 123.379 106.864 125.171C112.748 128.623 121.603 130.045 132.235 130.124C132.44 132.403 133.356 134.312 134.865 135.846C135.131 136.116 135.415 136.374 135.714 136.619C134.737 138.855 131.251 143.862 124.244 151.315C123.533 152.071 122.785 152.853 122 153.66C122.401 153.32 123.071 152.996 124.019 152.537C124.275 152.413 124.551 152.279 124.848 152.132C128.015 150.568 133.51 147.548 141.537 139.48C141.627 139.506 141.718 139.531 141.809 139.556C147.275 141.062 154.637 141.099 162.644 140.105C162.899 140.748 163.348 141.361 163.878 141.921C164.737 142.828 165.96 143.753 167.468 144.643C170.491 146.428 174.788 148.15 179.982 149.334C190.248 151.674 204.128 151.941 218.807 146.338C228.493 154.401 243.994 158.117 258.72 157.997C266.222 157.936 273.582 156.881 279.949 154.864ZM136.534 137.232C137.672 138.009 138.995 138.64 140.461 139.142C135.068 144.511 130.872 147.537 127.809 149.382C127.495 149.571 127.192 149.748 126.9 149.915C129.914 146.597 132.169 143.825 133.768 141.634C134.899 140.082 135.715 138.806 136.238 137.822C136.348 137.616 136.447 137.419 136.534 137.232Z" fill="white"/>
<path d="M258.704 155.997L258.712 156.997L258.704 155.997ZM219.654 144.434L220.308 143.677L220.308 143.677L219.654 144.434ZM279.345 152.957L279.042 152.004L279.345 152.957ZM293.827 144.524L293.082 143.858L293.827 144.524ZM294.628 144.193L294.683 143.194H294.683L294.628 144.193ZM295.387 144.611L296.202 144.031H296.202L295.387 144.611ZM305.976 151.305L305.649 152.25L305.976 151.305ZM322.887 154.281L322.85 155.281H322.85L322.887 154.281ZM340.5 152.308L340.783 153.267L340.5 152.308ZM353.273 144.567L354.054 145.191L354.054 145.191L353.273 144.567ZM354.278 144.217L354.054 145.191H354.054L354.278 144.217ZM402.392 147.544L402.256 146.553H402.256L402.392 147.544ZM421.855 140.382L422.484 141.159L421.855 140.382ZM428.628 123.579L427.631 123.652V123.652L428.628 123.579ZM428.963 122.756L429.625 123.505L429.625 123.505L428.963 122.756ZM429.82 122.524L429.625 123.505L429.82 122.524ZM471.863 110.837L471.161 110.124L471.863 110.837ZM485.649 82.4722L486.616 82.7261V82.7261L485.649 82.4722ZM480.779 62.3453L481.606 61.784V61.784L480.779 62.3453ZM453.212 47.5816L453.134 48.5785L453.212 47.5816ZM452.352 46.9283L451.413 47.272V47.272L452.352 46.9283ZM423.064 20.4454L422.737 21.3901L423.064 20.4454ZM390.156 15.6753L390.179 16.6751H390.179L390.156 15.6753ZM389.635 15.5428L389.137 16.4099V16.4099L389.635 15.5428ZM350.96 3.05399L350.999 2.05473L350.96 3.05399ZM309.925 9.22139L310.163 10.1926L310.163 10.1925L309.925 9.22139ZM309.37 9.19899L309.054 10.1477L309.054 10.1478L309.37 9.19899ZM275.65 2.0329L275.68 1.03337H275.68L275.65 2.0329ZM242.076 9.16607L242.477 10.0819L242.478 10.0819L242.076 9.16607ZM241.423 9.21808L241.171 10.1859L241.171 10.1859L241.423 9.21808ZM198.686 2.7157L198.737 3.71442L198.686 2.7157ZM163.856 13.1657L164.293 14.0653L164.293 14.0653L163.856 13.1657ZM163.404 13.266L163.42 12.2661L163.419 12.2661L163.404 13.266ZM132.172 17.9556L131.703 17.0719L132.172 17.9556ZM124.884 24.8334L125.759 25.318L124.884 24.8334ZM121.694 36.5369L121.49 35.558H121.49L121.694 36.5369ZM95.0124 49.9351L94.1988 49.3537H94.1988L95.0124 49.9351ZM95.5216 68.3592L94.6739 68.8897L94.6739 68.8897L95.5216 68.3592ZM95.4754 69.4877L96.2769 70.0857H96.2769L95.4754 69.4877ZM87.0188 87.6915L86.0203 87.7465L87.0188 87.6915ZM101.142 106.655L101.759 105.869L101.759 105.869L101.142 106.655ZM101.505 107.641L100.525 107.442H100.525L101.505 107.641ZM102.073 117.215L102.993 116.823L102.073 117.215ZM107.876 123.446L107.37 124.309L107.876 123.446ZM136.29 134.443L135.578 135.144H135.578L136.29 134.443ZM142.34 137.628L142.075 138.592L142.075 138.592L142.34 137.628ZM163.288 138.006L163.156 137.014L163.156 137.014L163.288 138.006ZM164.078 138.245L164.737 137.492L164.737 137.492L164.078 138.245ZM165.33 140.545L164.604 141.233L164.604 141.233L165.33 140.545ZM168.485 142.921L168.994 142.06L168.485 142.921ZM180.427 147.384L180.649 146.409L180.427 147.384ZM218.636 144.26L218.272 143.329H218.272L218.636 144.26ZM294.506 146.717L295.259 146.059C295.077 145.85 294.816 145.726 294.539 145.717C294.262 145.708 293.993 145.814 293.798 146.01L294.506 146.717ZM279.949 154.864L279.647 153.91L279.949 154.864ZM305.321 153.195L304.994 154.14L305.321 153.195ZM322.814 156.28L322.777 157.279L322.814 156.28ZM341.067 154.226L341.35 155.185L341.067 154.226ZM354.432 146.303L354.652 145.327C354.291 145.246 353.913 145.371 353.672 145.653L354.432 146.303ZM402.666 149.525L402.529 148.534H402.529L402.666 149.525ZM423.114 141.936L423.743 142.713L423.114 141.936ZM430.69 124.722L430.864 123.738C430.568 123.685 430.263 123.769 430.036 123.966C429.808 124.163 429.681 124.451 429.69 124.752L430.69 124.722ZM473.266 112.261L473.968 112.974L473.266 112.261ZM487.616 82.8542L486.646 82.61C486.627 82.6877 486.617 82.7674 486.616 82.8475L487.616 82.8542ZM482.434 61.2228L483.262 60.6615V60.6615L482.434 61.2228ZM454.006 45.6419L453.072 45.9992C453.208 46.3554 453.535 46.6031 453.915 46.6377L454.006 45.6419ZM423.72 18.5559L423.392 19.5006L423.72 18.5559ZM390.389 13.6699L389.893 14.5379C390.05 14.6278 390.228 14.6733 390.409 14.6697L390.389 13.6699ZM351.037 1.05547L350.999 2.05473V2.05473L351.037 1.05547ZM309.728 7.2103L309.413 8.15934C309.592 8.21867 309.784 8.22636 309.966 8.18153L309.728 7.2103ZM275.711 0.0338336L275.741 -0.965701L275.711 0.0338336ZM241.591 7.19545L241.34 8.16346C241.556 8.2195 241.785 8.20156 241.99 8.11248L241.591 7.19545ZM198.585 0.718267L198.636 1.71699V1.71699L198.585 0.718267ZM163.197 11.2626L163.183 12.2625C163.338 12.2648 163.493 12.2306 163.633 12.1627L163.197 11.2626ZM131.235 16.1883L130.767 15.3046L130.767 15.3046L131.235 16.1883ZM123.135 23.8642L122.26 23.3796L123.135 23.8642ZM120.499 34.7467L120.711 35.724C121.162 35.6259 121.488 35.2314 121.498 34.7694L120.499 34.7467ZM93.3851 48.7724L94.1988 49.3537L93.3851 48.7724ZM93.4689 68.8343L94.2724 69.4297C94.5122 69.106 94.5344 68.6699 94.3286 68.3236L93.4689 68.8343ZM85.0218 87.8015L84.0233 87.8565L85.0218 87.8015ZM99.4282 107.851L100.412 108.027C100.478 107.665 100.338 107.296 100.05 107.067L99.4282 107.851ZM100.234 117.999L99.3138 118.391L100.234 117.999ZM106.864 125.171L107.37 124.308L106.864 125.171ZM132.235 130.124L133.231 130.034C133.185 129.522 132.757 129.128 132.242 129.124L132.235 130.124ZM134.865 135.846L135.578 135.144L134.865 135.846ZM135.714 136.619L136.63 137.019C136.81 136.609 136.694 136.129 136.347 135.845L135.714 136.619ZM124.244 151.315L123.515 150.63L124.244 151.315ZM122 153.66L121.283 152.963C120.911 153.345 120.905 153.952 121.269 154.342C121.633 154.732 122.239 154.768 122.647 154.423L122 153.66ZM124.019 152.537L123.583 151.637H123.583L124.019 152.537ZM124.848 152.132L124.405 151.235L124.405 151.235L124.848 152.132ZM141.537 139.48L141.814 138.519C141.463 138.418 141.085 138.516 140.828 138.774L141.537 139.48ZM141.809 139.556L141.543 140.52L141.543 140.52L141.809 139.556ZM162.644 140.105L163.574 139.737C163.406 139.313 162.973 139.056 162.521 139.112L162.644 140.105ZM163.878 141.921L164.604 141.233L164.604 141.233L163.878 141.921ZM167.468 144.643L166.96 145.505L167.468 144.643ZM179.982 149.334L179.76 150.309L179.982 149.334ZM218.807 146.338L219.447 145.569C219.169 145.338 218.788 145.275 218.451 145.404L218.807 146.338ZM258.72 157.997L258.728 158.997L258.72 157.997ZM140.461 139.142L141.167 139.85C141.411 139.607 141.513 139.254 141.435 138.917C141.358 138.58 141.112 138.307 140.785 138.195L140.461 139.142ZM136.534 137.232L137.099 136.406C136.856 136.24 136.553 136.19 136.27 136.267C135.987 136.345 135.753 136.542 135.628 136.808L136.534 137.232ZM127.809 149.382L127.294 148.525H127.293L127.809 149.382ZM126.9 149.915L126.16 149.242C125.83 149.606 125.813 150.157 126.12 150.54C126.428 150.924 126.968 151.027 127.396 150.783L126.9 149.915ZM133.768 141.634L132.96 141.044L133.768 141.634ZM136.238 137.822L137.121 138.291H137.121L136.238 137.822ZM258.696 154.997C244.104 155.116 229.186 151.344 220.308 143.677L219.001 145.191C228.394 153.302 243.873 157.118 258.712 156.997L258.696 154.997ZM279.042 152.004C273.005 153.917 265.949 154.939 258.696 154.997L258.712 156.997C266.131 156.937 273.389 155.893 279.647 153.91L279.042 152.004ZM293.082 143.858C289.992 147.311 285.104 150.083 279.042 152.004L279.647 153.91C285.904 151.928 291.159 149.006 294.572 145.191L293.082 143.858ZM294.683 143.194C294.076 143.16 293.487 143.405 293.082 143.858L294.572 145.191H294.572L294.683 143.194ZM296.202 144.031C295.849 143.536 295.29 143.228 294.683 143.194L294.572 145.191H294.572L296.202 144.031ZM306.304 150.361C301.44 148.674 297.917 146.441 296.202 144.031L294.572 145.191C296.644 148.103 300.636 150.512 305.649 152.25L306.304 150.361ZM322.924 153.282C316.937 153.062 311.103 152.024 306.304 150.361L305.649 152.25C310.661 153.988 316.695 155.055 322.85 155.281L322.924 153.282ZM340.217 151.349C334.966 152.9 328.912 153.502 322.924 153.282L322.85 155.281C329.006 155.507 335.283 154.892 340.783 153.267L340.217 151.349ZM352.491 143.943C349.787 147.328 345.485 149.792 340.217 151.349L340.783 153.267C346.284 151.641 351.007 149.006 354.054 145.191L352.491 143.943ZM354.503 143.242C353.753 143.07 352.971 143.342 352.491 143.943L354.054 145.191L354.054 145.191L354.503 143.242ZM402.256 146.553C386.681 148.705 367.471 146.228 354.503 143.242L354.054 145.191C367.137 148.203 386.615 150.733 402.529 148.534L402.256 146.553ZM421.225 139.605C416.702 143.269 410.053 145.476 402.256 146.553L402.529 148.534C410.487 147.435 417.553 145.153 422.484 141.159L421.225 139.605ZM427.631 123.652C428.169 130.969 425.633 136.034 421.225 139.605L422.484 141.159C427.415 137.164 430.21 131.457 429.625 123.505L427.631 123.652ZM428.3 122.007C427.832 122.421 427.585 123.029 427.631 123.652L429.625 123.505V123.505L428.3 122.007ZM430.014 121.543C429.401 121.422 428.767 121.594 428.3 122.007L429.625 123.505L429.625 123.505L430.014 121.543ZM471.161 110.124C462.154 118.996 448.563 125.218 430.014 121.543L429.625 123.505C448.884 127.32 463.131 120.84 472.565 111.549L471.161 110.124ZM484.616 82.7261C484.616 89.5321 480.28 101.143 471.161 110.124L472.565 111.549C481.998 102.258 486.616 90.1554 486.616 82.7261H484.616ZM484.682 82.2183C484.638 82.384 484.616 82.5547 484.616 82.7261H486.616V82.7261L484.682 82.2183ZM479.951 62.9066C484.791 70.043 485.808 77.929 484.682 82.2183L486.616 82.7261C487.917 77.7733 486.704 69.3002 481.606 61.784L479.951 62.9066ZM453.134 48.5785C466.761 49.6548 475.193 55.8903 479.951 62.9066L481.606 61.784C476.509 54.268 467.528 47.7091 453.291 46.5847L453.134 48.5785ZM451.413 47.272C451.682 48.0065 452.354 48.5169 453.134 48.5785L453.291 46.5847V46.5847L451.413 47.272ZM422.737 21.3901C434.953 25.6301 446.325 33.3705 451.413 47.272L453.291 46.5847C447.924 31.9194 435.938 23.8551 423.392 19.5006L422.737 21.3901ZM390.179 16.6751C397.662 16.504 410.503 17.1442 422.737 21.3901L423.392 19.5006C410.846 15.1462 397.74 14.5017 390.133 14.6756L390.179 16.6751ZM389.137 16.4099C389.454 16.5917 389.814 16.6834 390.179 16.6751L390.133 14.6756L390.133 14.6756L389.137 16.4099ZM350.922 4.05325C362.843 4.51152 374.483 7.99309 389.137 16.4099L390.133 14.6756C375.268 6.13771 363.315 2.52819 350.999 2.05473L350.922 4.05325ZM310.163 10.1925C326.495 6.18257 338.921 3.59192 350.922 4.05325L350.999 2.05473C338.683 1.58127 326.004 4.24389 309.686 8.25024L310.163 10.1925ZM309.054 10.1478C309.412 10.267 309.797 10.2825 310.163 10.1926L309.686 8.25023L309.686 8.25023L309.054 10.1478ZM275.619 3.03244C286.094 3.35218 296.642 6.01359 309.054 10.1477L309.686 8.25024C297.215 4.09631 286.448 1.36204 275.68 1.03337L275.619 3.03244ZM242.478 10.0819C254.711 4.71758 265.184 2.71393 275.619 3.03244L275.68 1.03337C264.913 0.704721 254.146 2.78167 241.674 8.25024L242.478 10.0819ZM241.171 10.1859C241.606 10.2989 242.066 10.2623 242.477 10.0819L241.674 8.25022L241.674 8.25023L241.171 10.1859ZM198.737 3.71442C209.943 3.14714 222.526 5.34024 241.171 10.1859L241.674 8.25024C222.999 3.39671 210.166 1.1333 198.636 1.71698L198.737 3.71442ZM164.293 14.0653C177.64 7.58527 187.588 4.27879 198.737 3.71442L198.636 1.71698C187.106 2.30066 176.88 5.73139 163.419 12.2661L164.293 14.0653ZM163.388 14.2658C163.701 14.2707 164.011 14.202 164.293 14.0653L163.42 12.2661L163.42 12.2661L163.388 14.2658ZM132.64 18.8393C139.06 15.4386 149.098 14.0439 163.388 14.2658L163.419 12.2661C149.085 12.0434 138.602 13.4177 131.703 17.0719L132.64 18.8393ZM125.759 25.318C127.237 22.6503 129.484 20.5109 132.64 18.8393L131.703 17.0719C128.254 18.8991 125.701 21.2963 124.009 24.3488L125.759 25.318ZM123.49 35.558C123.49 31.3544 124.272 28.0014 125.759 25.318L124.009 24.3488C122.318 27.4013 121.49 31.1093 121.49 35.558H123.49ZM121.899 37.5157C122.826 37.322 123.49 36.5049 123.49 35.558H121.49H121.49L121.899 37.5157ZM95.8261 50.5164C99.5952 45.2412 107.823 40.4585 121.899 37.5157L121.49 35.558C107.238 38.5376 98.4045 43.4673 94.1988 49.3537L95.8261 50.5164ZM96.3693 67.8288C92.4252 61.5257 92.2053 55.5841 95.8261 50.5164L94.1988 49.3537C89.9935 55.2395 90.4143 62.0824 94.6739 68.8897L96.3693 67.8288ZM96.2769 70.0857C96.7703 69.4244 96.807 68.5281 96.3693 67.8288L94.6739 68.8897L94.6739 68.8897L96.2769 70.0857ZM88.0173 87.6365C87.8801 85.1467 88.5578 82.6054 89.9781 79.746C91.4031 76.8773 93.546 73.7461 96.2769 70.0857L94.6739 68.8897C91.9321 72.5647 89.6969 75.8165 88.1869 78.8563C86.6722 81.9056 85.8579 84.7985 86.0203 87.7465L88.0173 87.6365ZM101.759 105.869C91.815 98.0634 88.288 92.5535 88.0173 87.6365L86.0203 87.7465C86.3427 93.5999 90.5246 99.5931 100.525 107.442L101.759 105.869ZM102.485 107.84C102.635 107.098 102.354 106.336 101.759 105.869L100.525 107.442L100.525 107.442L102.485 107.84ZM102.993 116.823C102.002 114.497 101.729 111.563 102.485 107.84L100.525 107.442C99.7094 111.458 99.9659 114.821 101.154 117.607L102.993 116.823ZM108.382 122.583C105.765 121.048 103.981 119.14 102.993 116.823L101.154 117.607C102.341 120.393 104.46 122.602 107.37 124.309L108.382 122.583ZM133.191 127.128C122.243 127.128 113.718 125.714 108.382 122.583L107.37 124.309C113.189 127.722 122.17 129.128 133.191 129.128V127.128ZM135.191 129.128C135.191 128.023 134.295 127.128 133.191 127.128V129.128H135.191ZM137.003 133.741C135.844 132.564 135.191 131.083 135.191 129.128H133.191C133.191 131.595 134.042 133.584 135.578 135.144L137.003 133.741ZM142.606 136.664C140.068 135.965 138.209 134.966 137.003 133.741L135.578 135.144C137.113 136.705 139.334 137.837 142.075 138.592L142.606 136.664ZM163.156 137.014C154.948 138.106 147.704 138.069 142.606 136.664L142.075 138.592C147.555 140.102 155.112 140.102 163.419 138.997L163.156 137.014ZM164.737 137.492C164.303 137.113 163.727 136.938 163.156 137.014L163.419 138.997H163.419L164.737 137.492ZM165.419 138.997C165.419 138.42 165.171 137.872 164.737 137.492L163.419 138.997H163.419H165.419ZM166.056 139.858C165.742 139.526 165.574 139.277 165.488 139.115C165.396 138.942 165.419 138.909 165.419 138.997H163.419C163.419 139.649 163.829 140.414 164.604 141.233L166.056 139.858ZM168.994 142.06C167.634 141.257 166.661 140.497 166.056 139.858L164.604 141.233C165.379 142.051 166.518 142.921 167.977 143.782L168.994 142.06ZM180.649 146.409C175.697 145.28 171.702 143.659 168.994 142.06L167.977 143.782C170.895 145.505 175.091 147.193 180.204 148.359L180.649 146.409ZM218.272 143.329C204.019 148.907 190.538 148.664 180.649 146.409L180.204 148.359C190.431 150.691 204.326 150.934 219.001 145.191L218.272 143.329ZM220.308 143.677C219.746 143.193 218.963 143.058 218.272 143.329L219.001 145.191L219.001 145.191L220.308 143.677ZM293.798 146.01C290.387 149.428 285.444 152.073 279.647 153.91L280.251 155.817C286.235 153.921 291.501 151.143 295.213 147.423L293.798 146.01ZM305.649 152.25C301.156 150.692 297.468 148.59 295.259 146.059L293.752 147.374C296.288 150.279 300.349 152.529 304.994 154.14L305.649 152.25ZM322.85 155.281C316.695 155.055 310.661 153.988 305.649 152.25L304.994 154.14C310.22 155.952 316.453 157.047 322.777 157.279L322.85 155.281ZM340.783 153.267C335.283 154.892 329.006 155.507 322.85 155.281L322.777 157.279C329.1 157.512 335.6 156.884 341.35 155.185L340.783 153.267ZM353.672 145.653C350.619 149.22 346.058 151.708 340.783 153.267L341.35 155.185C346.849 153.56 351.804 150.912 355.192 146.953L353.672 145.653ZM402.529 148.534C386.857 150.699 367.728 148.279 354.652 145.327L354.212 147.278C367.4 150.255 386.794 152.727 402.803 150.515L402.529 148.534ZM422.484 141.159C417.553 145.153 410.487 147.435 402.529 148.534L402.803 150.515C410.92 149.394 418.404 147.038 423.743 142.713L422.484 141.159ZM429.69 124.752C429.907 132.051 427.159 137.371 422.484 141.159L423.743 142.713C428.904 138.532 431.925 132.613 431.689 124.693L429.69 124.752ZM472.565 111.549C463.333 120.642 449.493 127.039 430.864 123.738L430.515 125.707C449.845 129.133 464.322 122.475 473.968 112.974L472.565 111.549ZM486.616 82.8475C486.566 90.2887 481.945 102.31 472.565 111.549L473.968 112.974C483.663 103.425 488.562 90.9169 488.616 82.8609L486.616 82.8475ZM481.606 61.784C486.663 69.2396 487.898 77.6395 486.646 82.61L488.586 83.0984C490.002 77.4744 488.575 68.4958 483.262 60.6615L481.606 61.784ZM453.915 46.6377C467.789 47.902 476.583 54.3774 481.606 61.784L483.262 60.6615C477.906 52.7641 468.574 45.9652 454.097 44.646L453.915 46.6377ZM423.392 19.5006C435.771 23.7971 447.604 31.7053 453.072 45.9992L454.94 45.2846C449.186 30.2438 436.751 22.0201 424.048 17.6112L423.392 19.5006ZM390.409 14.6697C398.056 14.5177 410.998 15.1987 423.392 19.5006L424.048 17.6112C411.344 13.2018 398.14 12.5156 390.37 12.6701L390.409 14.6697ZM350.999 2.05473C363.249 2.52564 375.139 6.099 389.893 14.5379L390.886 12.8019C375.921 4.24208 363.718 0.54221 351.076 0.0562086L350.999 2.05473ZM309.966 8.18153C326.149 4.21339 338.754 1.58399 350.999 2.05473L351.076 0.0562087C338.516 -0.426605 325.66 2.27396 309.49 6.23907L309.966 8.18153ZM275.68 1.03337C286.369 1.35962 297.057 4.0564 309.413 8.15934L310.043 6.26126C297.627 2.1381 286.72 -0.630578 275.741 -0.965701L275.68 1.03337ZM241.99 8.11248C254.327 2.74691 265.004 0.707472 275.68 1.03337L275.741 -0.965701C264.736 -1.30164 253.767 0.809591 241.192 6.27842L241.99 8.11248ZM198.636 1.71699C210.096 1.13681 222.846 3.36966 241.34 8.16346L241.842 6.22744C223.315 1.42537 210.317 -0.876944 198.535 -0.280455L198.636 1.71699ZM163.633 12.1627C176.988 5.69523 187.167 2.29756 198.636 1.71699L198.535 -0.280455C186.686 0.319327 176.23 3.83994 162.761 10.3626L163.633 12.1627ZM131.703 17.072C138.564 13.4381 148.968 12.0586 163.183 12.2625L163.211 10.2627C148.951 10.0582 138.104 11.4183 130.767 15.3046L131.703 17.072ZM124.009 24.3488C125.701 21.2963 128.254 18.8991 131.703 17.072L130.767 15.3046C127.024 17.2872 124.164 19.9421 122.26 23.3796L124.009 24.3488ZM121.498 34.7694C121.592 30.6689 122.419 27.2193 124.009 24.3488L122.26 23.3796C120.478 26.5969 119.598 30.3815 119.499 34.724L121.498 34.7694ZM94.1988 49.3537C98.3266 43.5764 106.913 38.7194 120.711 35.724L120.287 33.7695C106.309 36.8039 97.1291 41.8121 92.5715 48.191L94.1988 49.3537ZM94.3286 68.3236C90.397 61.7058 90.1073 55.0802 94.1988 49.3537L92.5715 48.191C87.9146 54.7088 88.3727 62.2142 92.6092 69.3451L94.3286 68.3236ZM86.0203 87.7465C85.7062 82.0433 89.0578 76.467 94.2724 69.4297L92.6654 68.239C87.5027 75.2064 83.6642 81.3361 84.0233 87.8565L86.0203 87.7465ZM100.05 107.067C90.3897 99.4001 86.3374 93.5047 86.0203 87.7465L84.0233 87.8565C84.3913 94.5386 89.0818 100.915 98.8065 108.634L100.05 107.067ZM101.154 117.607C100.024 114.957 99.7369 111.786 100.412 108.027L98.444 107.674C97.7161 111.723 97.998 115.305 99.3138 118.391L101.154 117.607ZM107.37 124.308C104.46 122.602 102.341 120.393 101.154 117.607L99.3138 118.391C100.701 121.647 103.156 124.155 106.358 126.034L107.37 124.308ZM132.242 129.124C121.65 129.045 113.018 127.622 107.37 124.308L106.358 126.034C112.479 129.624 121.556 131.044 132.227 131.124L132.242 129.124ZM135.578 135.144C134.229 133.774 133.415 132.08 133.231 130.034L131.239 130.214C131.465 132.725 132.482 134.85 134.152 136.547L135.578 135.144ZM136.347 135.845C136.074 135.621 135.818 135.388 135.578 135.144L134.152 136.547C134.445 136.844 134.755 137.126 135.081 137.393L136.347 135.845ZM134.798 136.218C133.895 138.283 130.517 143.183 123.515 150.63L124.973 152C131.986 144.541 135.578 139.426 136.63 137.019L134.798 136.218ZM123.515 150.63C122.808 151.382 122.064 152.16 121.283 152.963L122.717 154.357C123.506 153.547 124.257 152.761 124.973 152L123.515 150.63ZM122.647 154.423C122.926 154.186 123.449 153.923 124.454 153.437L123.583 151.637C122.693 152.068 121.876 152.454 121.353 152.897L122.647 154.423ZM124.454 153.437C124.71 153.313 124.99 153.177 125.291 153.029L124.405 151.235C124.112 151.38 123.839 151.512 123.583 151.637L124.454 153.437ZM125.291 153.029C128.546 151.421 134.133 148.339 142.246 140.185L140.828 138.774C132.886 146.757 127.484 149.715 124.405 151.235L125.291 153.029ZM142.075 138.592C141.987 138.568 141.9 138.544 141.814 138.519L141.26 140.441C141.354 140.468 141.449 140.494 141.543 140.52L142.075 138.592ZM162.521 139.112C154.565 140.101 147.355 140.047 142.075 138.592L141.543 140.52C147.195 142.077 154.709 142.098 162.768 141.097L162.521 139.112ZM164.604 141.233C164.122 140.725 163.765 140.218 163.574 139.737L161.715 140.473C162.033 141.278 162.573 141.997 163.152 142.608L164.604 141.233ZM167.977 143.782C166.518 142.921 165.379 142.051 164.604 141.233L163.152 142.608C164.096 143.605 165.402 144.585 166.96 145.505L167.977 143.782ZM180.204 148.359C175.091 147.193 170.895 145.505 167.977 143.782L166.96 145.505C170.088 147.351 174.485 149.106 179.76 150.309L180.204 148.359ZM218.451 145.404C203.979 150.928 190.303 150.661 180.204 148.359L179.76 150.309C190.192 152.687 204.277 152.955 219.164 147.272L218.451 145.404ZM258.712 156.997C244.109 157.116 228.88 153.422 219.447 145.569L218.167 147.107C228.107 155.381 243.878 159.118 258.728 158.997L258.712 156.997ZM279.647 153.91C273.389 155.893 266.131 156.937 258.712 156.997L258.728 158.997C266.313 158.936 273.774 157.869 280.251 155.817L279.647 153.91ZM140.785 138.195C139.386 137.717 138.147 137.123 137.099 136.406L135.97 138.057C137.197 138.896 138.605 139.563 140.137 140.088L140.785 138.195ZM128.325 150.238C131.462 148.349 135.721 145.272 141.167 139.85L139.756 138.433C134.415 143.75 130.282 146.725 127.294 148.525L128.325 150.238ZM127.396 150.783C127.694 150.613 128.004 150.432 128.325 150.238L127.293 148.525C126.986 148.71 126.69 148.884 126.405 149.046L127.396 150.783ZM132.96 141.044C131.386 143.201 129.156 145.945 126.16 149.242L127.641 150.587C130.673 147.249 132.951 144.45 134.575 142.223L132.96 141.044ZM135.356 137.352C134.862 138.28 134.076 139.515 132.96 141.044L134.575 142.223C135.723 140.65 136.567 139.332 137.121 138.291L135.356 137.352ZM135.628 136.808C135.549 136.977 135.458 137.159 135.356 137.352L137.121 138.291C137.238 138.072 137.345 137.86 137.44 137.655L135.628 136.808Z" fill="#333F72" mask="url(#path-46-inside-1_1_2562)"/>
<path d="M137.8 41.95C137.8 41.404 137.45 41.096 137.016 41.096C136.848 41.096 136.722 41.138 136.624 41.194C136.624 40.746 137.016 40.382 137.562 40.27V39.682C136.582 39.822 135.868 40.634 135.868 41.656C135.868 42.412 136.316 42.874 136.876 42.874C137.436 42.874 137.8 42.482 137.8 41.95ZM140.306 41.95C140.306 41.404 139.942 41.096 139.508 41.096C139.354 41.096 139.228 41.124 139.13 41.18C139.13 40.746 139.522 40.382 140.068 40.27V39.682C139.088 39.822 138.36 40.634 138.36 41.656C138.36 42.412 138.808 42.874 139.382 42.874C139.928 42.874 140.306 42.482 140.306 41.95ZM143.728 39.878H142.356V50H143.728V39.878ZM151.008 49.986V46.262C151.008 45.086 151.694 44.162 152.968 44.162C153.948 44.162 154.606 44.722 154.606 46.108V50H155.922V45.814C155.922 44.064 155.082 42.958 153.332 42.958C152.268 42.958 151.442 43.462 151.008 44.204V39.696H149.692V49.986H151.008ZM158.389 41.53C158.865 41.53 159.257 41.138 159.257 40.662C159.257 40.172 158.865 39.794 158.389 39.794C157.913 39.794 157.521 40.172 157.521 40.662C157.521 41.138 157.913 41.53 158.389 41.53ZM157.745 50H159.061V43.154H157.745V50ZM160.537 46.402C160.537 48.32 161.769 49.818 163.715 49.818C164.793 49.818 165.689 49.342 166.137 48.544V49.916C166.137 51.218 165.297 52.058 164.009 52.058C162.861 52.058 162.105 51.47 161.937 50.462H160.621C160.873 52.198 162.147 53.248 164.009 53.248C166.109 53.248 167.439 51.876 167.439 49.72V43.154H166.263L166.165 44.316C165.731 43.462 164.877 42.958 163.771 42.958C161.783 42.958 160.537 44.47 160.537 46.402ZM161.853 46.374C161.853 45.114 162.637 44.106 163.953 44.106C165.297 44.106 166.081 45.058 166.081 46.374C166.081 47.718 165.269 48.67 163.939 48.67C162.651 48.67 161.853 47.662 161.853 46.374ZM170.655 49.986V46.262C170.655 45.086 171.341 44.162 172.615 44.162C173.595 44.162 174.253 44.722 174.253 46.108V50H175.569V45.814C175.569 44.064 174.729 42.958 172.979 42.958C171.915 42.958 171.089 43.462 170.655 44.204V39.696H169.339V49.986H170.655ZM178.735 50V39.696H177.419V50H178.735ZM180.015 53.066C180.365 53.15 180.729 53.206 181.163 53.206C182.213 53.206 182.899 52.716 183.361 51.54L186.595 43.154H185.237L183.207 48.67L181.219 43.154H179.833L182.591 50.364L182.353 51.022C182.031 51.89 181.527 51.988 180.897 51.988H180.015V53.066ZM195.393 43.098C195.127 43.042 194.931 43.014 194.693 43.014C193.755 43.014 193.069 43.49 192.789 44.204L192.705 43.168H191.473V50H192.789V46.374C192.789 45.058 193.559 44.302 194.805 44.302H195.393V43.098ZM199.336 50.168C201.03 50.168 202.178 49.342 202.514 47.872H201.282C201.058 48.656 200.386 49.076 199.364 49.076C198.062 49.076 197.306 48.278 197.208 46.836L202.5 46.822V46.332C202.5 44.302 201.226 42.958 199.28 42.958C197.292 42.958 195.934 44.442 195.934 46.584C195.934 48.712 197.32 50.168 199.336 50.168ZM199.28 44.064C200.442 44.064 201.184 44.82 201.184 45.954H197.236C197.404 44.75 198.132 44.064 199.28 44.064ZM203.522 46.584C203.522 48.74 204.852 50.168 206.868 50.168C208.52 50.168 209.794 49.174 210.06 47.69H208.744C208.506 48.502 207.806 48.992 206.868 48.992C205.622 48.992 204.824 48.04 204.824 46.57C204.824 45.086 205.678 44.134 206.924 44.134C207.806 44.134 208.506 44.596 208.73 45.464H210.046C209.808 43.938 208.604 42.958 206.882 42.958C204.88 42.958 203.522 44.442 203.522 46.584ZM211 46.57C211 48.684 212.512 50.168 214.57 50.168C216.614 50.168 218.126 48.684 218.126 46.57C218.126 44.456 216.614 42.972 214.57 42.972C212.512 42.972 211 44.456 211 46.57ZM212.33 46.57C212.33 45.142 213.24 44.148 214.57 44.148C215.886 44.148 216.81 45.142 216.81 46.57C216.81 47.998 215.886 48.992 214.57 48.992C213.24 48.992 212.33 47.998 212.33 46.57ZM220.899 50V45.94C220.899 44.848 221.557 44.162 222.551 44.162C223.475 44.162 224.063 44.75 224.063 45.828V50H225.365V45.94C225.365 44.848 226.023 44.148 227.017 44.148C227.941 44.148 228.543 44.764 228.543 45.842V50H229.831V45.52C229.831 43.938 228.879 42.958 227.311 42.958C226.247 42.958 225.421 43.49 225.099 44.344C224.749 43.49 223.993 42.958 222.929 42.958C221.963 42.958 221.235 43.406 220.885 44.05L220.759 43.154H219.583V50H220.899ZM232.971 50V45.94C232.971 44.848 233.629 44.162 234.623 44.162C235.547 44.162 236.135 44.75 236.135 45.828V50H237.437V45.94C237.437 44.848 238.095 44.148 239.089 44.148C240.013 44.148 240.615 44.764 240.615 45.842V50H241.903V45.52C241.903 43.938 240.951 42.958 239.383 42.958C238.319 42.958 237.493 43.49 237.171 44.344C236.821 43.49 236.065 42.958 235.001 42.958C234.035 42.958 233.307 43.406 232.957 44.05L232.831 43.154H231.655V50H232.971ZM246.681 50.168C248.375 50.168 249.523 49.342 249.859 47.872H248.627C248.403 48.656 247.731 49.076 246.709 49.076C245.407 49.076 244.651 48.278 244.553 46.836L249.845 46.822V46.332C249.845 44.302 248.571 42.958 246.625 42.958C244.637 42.958 243.279 44.442 243.279 46.584C243.279 48.712 244.665 50.168 246.681 50.168ZM246.625 44.064C247.787 44.064 248.529 44.82 248.529 45.954H244.581C244.749 44.75 245.477 44.064 246.625 44.064ZM252.631 50V46.374C252.631 45.044 253.345 44.162 254.577 44.162C255.585 44.162 256.229 44.722 256.229 46.108V50H257.545V45.814C257.545 44.064 256.719 42.958 254.913 42.958C253.947 42.958 253.079 43.42 252.645 44.204L252.505 43.154H251.315V50H252.631ZM262.112 50.168C263.204 50.168 264.128 49.692 264.576 48.754L264.688 50H265.864V39.696H264.562V44.26C264.1 43.42 263.218 42.958 262.168 42.958C260.138 42.958 258.92 44.498 258.92 46.598C258.92 48.684 260.124 50.168 262.112 50.168ZM262.378 48.978C261.034 48.978 260.25 47.97 260.25 46.556C260.25 45.156 261.034 44.148 262.378 44.148C263.722 44.148 264.548 45.156 264.548 46.556C264.548 47.984 263.722 48.978 262.378 48.978ZM273.523 50V44.26H274.867V43.154H273.523V41.012H272.207V43.154H270.863V44.26H272.207V50H273.523ZM277.364 49.986V46.262C277.364 45.086 278.05 44.162 279.324 44.162C280.304 44.162 280.962 44.722 280.962 46.108V50H282.278V45.814C282.278 44.064 281.438 42.958 279.688 42.958C278.624 42.958 277.798 43.462 277.364 44.204V39.696H276.048V49.986H277.364ZM287.054 50.168C288.748 50.168 289.896 49.342 290.232 47.872H289C288.776 48.656 288.104 49.076 287.082 49.076C285.78 49.076 285.024 48.278 284.926 46.836L290.218 46.822V46.332C290.218 44.302 288.944 42.958 286.998 42.958C285.01 42.958 283.652 44.442 283.652 46.584C283.652 48.712 285.038 50.168 287.054 50.168ZM286.998 44.064C288.16 44.064 288.902 44.82 288.902 45.954H284.954C285.122 44.75 285.85 44.064 286.998 44.064ZM297.448 50V44.26H298.792V43.154H297.448V41.012H296.132V43.154H294.788V44.26H296.132V50H297.448ZM302.859 50.168C304.553 50.168 305.701 49.342 306.037 47.872H304.805C304.581 48.656 303.909 49.076 302.887 49.076C301.585 49.076 300.829 48.278 300.731 46.836L306.023 46.822V46.332C306.023 44.302 304.749 42.958 302.803 42.958C300.815 42.958 299.457 44.442 299.457 46.584C299.457 48.712 300.843 50.168 302.859 50.168ZM302.803 44.064C303.965 44.064 304.707 44.82 304.707 45.954H300.759C300.927 44.75 301.655 44.064 302.803 44.064ZM308.809 50V45.94C308.809 44.848 309.467 44.162 310.461 44.162C311.385 44.162 311.973 44.75 311.973 45.828V50H313.275V45.94C313.275 44.848 313.933 44.148 314.927 44.148C315.851 44.148 316.453 44.764 316.453 45.842V50H317.741V45.52C317.741 43.938 316.789 42.958 315.221 42.958C314.157 42.958 313.331 43.49 313.009 44.344C312.659 43.49 311.903 42.958 310.839 42.958C309.873 42.958 309.145 43.406 308.795 44.05L308.669 43.154H307.493V50H308.809ZM319.565 53.066H320.881V48.88C321.329 49.72 322.239 50.182 323.331 50.182C325.361 50.182 326.509 48.614 326.509 46.528C326.509 44.428 325.291 42.958 323.331 42.958C322.239 42.958 321.315 43.448 320.853 44.386L320.755 43.154H319.565V53.066ZM320.895 46.584C320.895 45.156 321.707 44.162 323.051 44.162C324.395 44.162 325.193 45.17 325.193 46.584C325.193 47.984 324.395 48.992 323.051 48.992C321.707 48.992 320.895 47.984 320.895 46.584ZM332.528 43.154V46.766C332.528 48.236 331.87 49.006 330.666 49.006C329.658 49.006 329.028 48.446 329.028 46.976V43.154H327.712V47.41C327.712 49.09 328.608 50.168 330.204 50.168C331.212 50.168 332.122 49.678 332.514 48.964L332.654 50H333.83V43.154H332.528ZM339.659 43.098C339.393 43.042 339.197 43.014 338.959 43.014C338.021 43.014 337.335 43.49 337.055 44.204L336.971 43.168H335.739V50H337.055V46.374C337.055 45.058 337.825 44.302 339.071 44.302H339.659V43.098ZM342.622 50.168C343.728 50.168 344.666 49.678 345.016 48.894L345.156 50H346.276V45.702C346.276 43.854 345.128 42.958 343.434 42.958C341.67 42.958 340.494 43.896 340.494 45.324H341.642C341.642 44.498 342.272 44.008 343.378 44.008C344.302 44.008 344.988 44.414 344.988 45.562V45.758L342.832 45.926C341.222 46.052 340.284 46.836 340.284 48.096C340.284 49.342 341.152 50.168 342.622 50.168ZM343 49.146C342.146 49.146 341.614 48.782 341.614 48.054C341.614 47.382 342.09 46.934 343.252 46.822L345.002 46.682V47.046C345.002 48.334 344.246 49.146 343 49.146ZM353.929 50.168C355.035 50.168 355.973 49.678 356.323 48.894L356.463 50H357.583V45.702C357.583 43.854 356.435 42.958 354.741 42.958C352.977 42.958 351.801 43.896 351.801 45.324H352.949C352.949 44.498 353.579 44.008 354.685 44.008C355.609 44.008 356.295 44.414 356.295 45.562V45.758L354.139 45.926C352.529 46.052 351.591 46.836 351.591 48.096C351.591 49.342 352.459 50.168 353.929 50.168ZM354.307 49.146C353.453 49.146 352.921 48.782 352.921 48.054C352.921 47.382 353.397 46.934 354.559 46.822L356.309 46.682V47.046C356.309 48.334 355.553 49.146 354.307 49.146ZM361.228 50V44.26H362.572V43.154H361.228V41.012H359.912V43.154H358.568V44.26H359.912V50H361.228ZM369.513 50V44.26H370.857V43.154H369.513V41.012H368.197V43.154H366.853V44.26H368.197V50H369.513ZM373.354 49.986V46.262C373.354 45.086 374.04 44.162 375.314 44.162C376.294 44.162 376.952 44.722 376.952 46.108V50H378.268V45.814C378.268 44.064 377.428 42.958 375.678 42.958C374.614 42.958 373.788 43.462 373.354 44.204V39.696H372.038V49.986H373.354ZM380.735 41.53C381.211 41.53 381.603 41.138 381.603 40.662C381.603 40.172 381.211 39.794 380.735 39.794C380.259 39.794 379.867 40.172 379.867 40.662C379.867 41.138 380.259 41.53 380.735 41.53ZM380.091 50H381.407V43.154H380.091V50ZM382.757 48.012C382.757 49.314 383.779 50.168 385.389 50.168C387.013 50.168 388.133 49.342 388.133 48.04C388.133 47.018 387.559 46.486 386.397 46.206L385.193 45.912C384.521 45.744 384.185 45.436 384.185 44.974C384.185 44.344 384.647 43.98 385.473 43.98C386.271 43.98 386.733 44.414 386.761 45.1H388.021C387.993 43.798 387.013 42.958 385.515 42.958C384.003 42.958 382.939 43.756 382.939 45.016C382.939 46.024 383.513 46.626 384.731 46.92L385.935 47.2C386.649 47.382 386.873 47.662 386.873 48.124C386.873 48.754 386.341 49.132 385.417 49.132C384.549 49.132 384.017 48.712 384.017 48.012H382.757ZM139.872 63.098C139.606 63.042 139.41 63.014 139.172 63.014C138.234 63.014 137.548 63.49 137.268 64.204L137.184 63.168H135.952V70H137.268V66.374C137.268 65.058 138.038 64.302 139.284 64.302H139.872V63.098ZM143.814 70.168C145.508 70.168 146.656 69.342 146.992 67.872H145.76C145.536 68.656 144.864 69.076 143.842 69.076C142.54 69.076 141.784 68.278 141.686 66.836L146.978 66.822V66.332C146.978 64.302 145.704 62.958 143.758 62.958C141.77 62.958 140.412 64.442 140.412 66.584C140.412 68.712 141.798 70.168 143.814 70.168ZM143.758 64.064C144.92 64.064 145.662 64.82 145.662 65.954H141.714C141.882 64.75 142.61 64.064 143.758 64.064ZM147.888 68.012C147.888 69.314 148.91 70.168 150.52 70.168C152.144 70.168 153.264 69.342 153.264 68.04C153.264 67.018 152.69 66.486 151.528 66.206L150.324 65.912C149.652 65.744 149.316 65.436 149.316 64.974C149.316 64.344 149.778 63.98 150.604 63.98C151.402 63.98 151.864 64.414 151.892 65.1H153.152C153.124 63.798 152.144 62.958 150.646 62.958C149.134 62.958 148.07 63.756 148.07 65.016C148.07 66.024 148.644 66.626 149.862 66.92L151.066 67.2C151.78 67.382 152.004 67.662 152.004 68.124C152.004 68.754 151.472 69.132 150.548 69.132C149.68 69.132 149.148 68.712 149.148 68.012H147.888ZM156.655 70V64.26H157.999V63.154H156.655V61.012H155.339V63.154H153.995V64.26H155.339V70H156.655ZM161.1 70.168C162.206 70.168 163.144 69.678 163.494 68.894L163.634 70H164.754V65.702C164.754 63.854 163.606 62.958 161.912 62.958C160.148 62.958 158.972 63.896 158.972 65.324H160.12C160.12 64.498 160.75 64.008 161.856 64.008C162.78 64.008 163.466 64.414 163.466 65.562V65.758L161.31 65.926C159.7 66.052 158.762 66.836 158.762 68.096C158.762 69.342 159.63 70.168 161.1 70.168ZM161.478 69.146C160.624 69.146 160.092 68.782 160.092 68.054C160.092 67.382 160.568 66.934 161.73 66.822L163.48 66.682V67.046C163.48 68.334 162.724 69.146 161.478 69.146ZM171.309 63.154V66.766C171.309 68.236 170.651 69.006 169.447 69.006C168.439 69.006 167.809 68.446 167.809 66.976V63.154H166.493V67.41C166.493 69.09 167.389 70.168 168.985 70.168C169.993 70.168 170.903 69.678 171.295 68.964L171.435 70H172.611V63.154H171.309ZM178.44 63.098C178.174 63.042 177.978 63.014 177.74 63.014C176.802 63.014 176.116 63.49 175.836 64.204L175.752 63.168H174.52V70H175.836V66.374C175.836 65.058 176.606 64.302 177.852 64.302H178.44V63.098ZM181.403 70.168C182.509 70.168 183.447 69.678 183.797 68.894L183.937 70H185.057V65.702C185.057 63.854 183.909 62.958 182.215 62.958C180.451 62.958 179.275 63.896 179.275 65.324H180.423C180.423 64.498 181.053 64.008 182.159 64.008C183.083 64.008 183.769 64.414 183.769 65.562V65.758L181.613 65.926C180.003 66.052 179.065 66.836 179.065 68.096C179.065 69.342 179.933 70.168 181.403 70.168ZM181.781 69.146C180.927 69.146 180.395 68.782 180.395 68.054C180.395 67.382 180.871 66.934 182.033 66.822L183.783 66.682V67.046C183.783 68.334 183.027 69.146 181.781 69.146ZM188.196 70V66.374C188.196 65.044 188.91 64.162 190.142 64.162C191.15 64.162 191.794 64.722 191.794 66.108V70H193.11V65.814C193.11 64.064 192.284 62.958 190.478 62.958C189.512 62.958 188.644 63.42 188.21 64.204L188.07 63.154H186.88V70H188.196ZM196.864 70V64.26H198.208V63.154H196.864V61.012H195.548V63.154H194.204V64.26H195.548V70H196.864ZM200.94 69.454C200.94 68.684 200.464 68.194 199.876 68.194C199.316 68.194 198.938 68.6 198.938 69.16C198.938 69.678 199.33 70.014 199.792 70.014C199.96 70.014 200.072 69.986 200.17 69.93C200.17 70.364 199.764 70.742 199.19 70.84V71.428C200.184 71.302 200.94 70.462 200.94 69.454ZM207.307 61.53C207.783 61.53 208.175 61.138 208.175 60.662C208.175 60.172 207.783 59.794 207.307 59.794C206.831 59.794 206.439 60.172 206.439 60.662C206.439 61.138 206.831 61.53 207.307 61.53ZM206.663 70H207.979V63.154H206.663V70ZM211.821 70V64.26H213.165V63.154H211.821V61.012H210.505V63.154H209.161V64.26H210.505V70H211.821ZM219.645 70H220.947L222.137 66.346C222.389 65.52 222.515 65.072 222.585 64.736C222.655 65.114 222.795 65.646 223.019 66.332L224.209 70H225.455L227.793 63.154H226.421L225.273 66.71C225.077 67.312 224.951 67.788 224.839 68.334C224.727 67.844 224.503 67.046 224.391 66.71L223.257 63.154H221.913L220.765 66.71C220.611 67.158 220.429 67.732 220.317 68.334C220.191 67.732 220.051 67.214 219.897 66.71L218.763 63.154H217.405L219.645 70ZM230.608 70.168C231.714 70.168 232.652 69.678 233.002 68.894L233.142 70H234.262V65.702C234.262 63.854 233.114 62.958 231.42 62.958C229.656 62.958 228.48 63.896 228.48 65.324H229.628C229.628 64.498 230.258 64.008 231.364 64.008C232.288 64.008 232.974 64.414 232.974 65.562V65.758L230.818 65.926C229.208 66.052 228.27 66.836 228.27 68.096C228.27 69.342 229.138 70.168 230.608 70.168ZM230.986 69.146C230.132 69.146 229.6 68.782 229.6 68.054C229.6 67.382 230.076 66.934 231.238 66.822L232.988 66.682V67.046C232.988 68.334 232.232 69.146 230.986 69.146ZM235.525 68.012C235.525 69.314 236.547 70.168 238.157 70.168C239.781 70.168 240.901 69.342 240.901 68.04C240.901 67.018 240.327 66.486 239.165 66.206L237.961 65.912C237.289 65.744 236.953 65.436 236.953 64.974C236.953 64.344 237.415 63.98 238.241 63.98C239.039 63.98 239.501 64.414 239.529 65.1H240.789C240.761 63.798 239.781 62.958 238.283 62.958C236.771 62.958 235.707 63.756 235.707 65.016C235.707 66.024 236.281 66.626 237.499 66.92L238.703 67.2C239.417 67.382 239.641 67.662 239.641 68.124C239.641 68.754 239.109 69.132 238.185 69.132C237.317 69.132 236.785 68.712 236.785 68.012H235.525ZM245.74 66.584C245.74 68.74 247.07 70.168 249.086 70.168C250.738 70.168 252.012 69.174 252.278 67.69H250.962C250.724 68.502 250.024 68.992 249.086 68.992C247.84 68.992 247.042 68.04 247.042 66.57C247.042 65.086 247.896 64.134 249.142 64.134C250.024 64.134 250.724 64.596 250.948 65.464H252.264C252.026 63.938 250.822 62.958 249.1 62.958C247.098 62.958 245.74 64.442 245.74 66.584ZM257.587 63.098C257.321 63.042 257.125 63.014 256.887 63.014C255.949 63.014 255.263 63.49 254.983 64.204L254.899 63.168H253.667V70H254.983V66.374C254.983 65.058 255.753 64.302 256.999 64.302H257.587V63.098ZM259.465 61.53C259.941 61.53 260.333 61.138 260.333 60.662C260.333 60.172 259.941 59.794 259.465 59.794C258.989 59.794 258.597 60.172 258.597 60.662C258.597 61.138 258.989 61.53 259.465 61.53ZM258.821 70H260.137V63.154H258.821V70ZM261.488 68.012C261.488 69.314 262.51 70.168 264.12 70.168C265.744 70.168 266.864 69.342 266.864 68.04C266.864 67.018 266.29 66.486 265.128 66.206L263.924 65.912C263.252 65.744 262.916 65.436 262.916 64.974C262.916 64.344 263.378 63.98 264.204 63.98C265.002 63.98 265.464 64.414 265.492 65.1H266.752C266.724 63.798 265.744 62.958 264.246 62.958C262.734 62.958 261.67 63.756 261.67 65.016C261.67 66.024 262.244 66.626 263.462 66.92L264.666 67.2C265.38 67.382 265.604 67.662 265.604 68.124C265.604 68.754 265.072 69.132 264.148 69.132C263.28 69.132 262.748 68.712 262.748 68.012H261.488ZM268.323 73.066H269.639V68.88C270.087 69.72 270.997 70.182 272.089 70.182C274.119 70.182 275.267 68.614 275.267 66.528C275.267 64.428 274.049 62.958 272.089 62.958C270.997 62.958 270.073 63.448 269.611 64.386L269.513 63.154H268.323V73.066ZM269.653 66.584C269.653 65.156 270.465 64.162 271.809 64.162C273.153 64.162 273.951 65.17 273.951 66.584C273.951 67.984 273.153 68.992 271.809 68.992C270.465 68.992 269.653 67.984 269.653 66.584ZM275.827 73.066C276.177 73.15 276.541 73.206 276.975 73.206C278.025 73.206 278.711 72.716 279.173 71.54L282.407 63.154H281.049L279.019 68.67L277.031 63.154H275.645L278.403 70.364L278.165 71.022C277.843 71.89 277.339 71.988 276.709 71.988H275.827V73.066ZM289.288 70.168C290.394 70.168 291.332 69.678 291.682 68.894L291.822 70H292.942V65.702C292.942 63.854 291.794 62.958 290.1 62.958C288.336 62.958 287.16 63.896 287.16 65.324H288.308C288.308 64.498 288.938 64.008 290.044 64.008C290.968 64.008 291.654 64.414 291.654 65.562V65.758L289.498 65.926C287.888 66.052 286.95 66.836 286.95 68.096C286.95 69.342 287.818 70.168 289.288 70.168ZM289.666 69.146C288.812 69.146 288.28 68.782 288.28 68.054C288.28 67.382 288.756 66.934 289.918 66.822L291.668 66.682V67.046C291.668 68.334 290.912 69.146 289.666 69.146ZM296.08 70V66.374C296.08 65.044 296.794 64.162 298.026 64.162C299.034 64.162 299.678 64.722 299.678 66.108V70H300.994V65.814C300.994 64.064 300.168 62.958 298.362 62.958C297.396 62.958 296.528 63.42 296.094 64.204L295.954 63.154H294.764V70H296.08ZM305.561 70.168C306.653 70.168 307.577 69.692 308.025 68.754L308.137 70H309.313V59.696H308.011V64.26C307.549 63.42 306.667 62.958 305.617 62.958C303.587 62.958 302.369 64.498 302.369 66.598C302.369 68.684 303.573 70.168 305.561 70.168ZM305.827 68.978C304.483 68.978 303.699 67.97 303.699 66.556C303.699 65.156 304.483 64.148 305.827 64.148C307.171 64.148 307.997 65.156 307.997 66.556C307.997 67.984 307.171 68.978 305.827 68.978ZM315.04 73.066H316.356V68.88C316.804 69.72 317.714 70.182 318.806 70.182C320.836 70.182 321.984 68.614 321.984 66.528C321.984 64.428 320.766 62.958 318.806 62.958C317.714 62.958 316.79 63.448 316.328 64.386L316.23 63.154H315.04V73.066ZM316.37 66.584C316.37 65.156 317.182 64.162 318.526 64.162C319.87 64.162 320.668 65.17 320.668 66.584C320.668 67.984 319.87 68.992 318.526 68.992C317.182 68.992 316.37 67.984 316.37 66.584ZM326.388 70.168C328.082 70.168 329.23 69.342 329.566 67.872H328.334C328.11 68.656 327.438 69.076 326.416 69.076C325.114 69.076 324.358 68.278 324.26 66.836L329.552 66.822V66.332C329.552 64.302 328.278 62.958 326.332 62.958C324.344 62.958 322.986 64.442 322.986 66.584C322.986 68.712 324.372 70.168 326.388 70.168ZM326.332 64.064C327.494 64.064 328.236 64.82 328.236 65.954H324.288C324.456 64.75 325.184 64.064 326.332 64.064ZM334.942 63.098C334.676 63.042 334.48 63.014 334.242 63.014C333.304 63.014 332.618 63.49 332.338 64.204L332.254 63.168H331.022V70H332.338V66.374C332.338 65.058 333.108 64.302 334.354 64.302H334.942V63.098ZM335.722 63.154V64.26H336.73V70H338.046V64.26H339.67V63.154H338.046V62.062C338.046 61.32 338.27 60.886 339.124 60.886H339.712V59.752C339.446 59.71 339.152 59.696 338.9 59.696C337.654 59.696 336.73 60.382 336.73 62.062V63.154H335.722ZM343.642 70.168C345.336 70.168 346.484 69.342 346.82 67.872H345.588C345.364 68.656 344.692 69.076 343.67 69.076C342.368 69.076 341.612 68.278 341.514 66.836L346.806 66.822V66.332C346.806 64.302 345.532 62.958 343.586 62.958C341.598 62.958 340.24 64.442 340.24 66.584C340.24 68.712 341.626 70.168 343.642 70.168ZM343.586 64.064C344.748 64.064 345.49 64.82 345.49 65.954H341.542C341.71 64.75 342.438 64.064 343.586 64.064ZM347.828 66.584C347.828 68.74 349.158 70.168 351.174 70.168C352.826 70.168 354.1 69.174 354.366 67.69H353.05C352.812 68.502 352.112 68.992 351.174 68.992C349.928 68.992 349.13 68.04 349.13 66.57C349.13 65.086 349.984 64.134 351.23 64.134C352.112 64.134 352.812 64.596 353.036 65.464H354.352C354.114 63.938 352.91 62.958 351.188 62.958C349.186 62.958 347.828 64.442 347.828 66.584ZM357.687 70V64.26H359.031V63.154H357.687V61.012H356.371V63.154H355.027V64.26H356.371V70H357.687ZM361.556 70V59.696H360.24V70H361.556ZM362.835 73.066C363.185 73.15 363.549 73.206 363.983 73.206C365.033 73.206 365.719 72.716 366.181 71.54L369.415 63.154H368.057L366.027 68.67L364.039 63.154H362.653L365.411 70.364L365.173 71.022C364.851 71.89 364.347 71.988 363.717 71.988H362.835V73.066ZM135.392 88.012C135.392 89.314 136.414 90.168 138.024 90.168C139.648 90.168 140.768 89.342 140.768 88.04C140.768 87.018 140.194 86.486 139.032 86.206L137.828 85.912C137.156 85.744 136.82 85.436 136.82 84.974C136.82 84.344 137.282 83.98 138.108 83.98C138.906 83.98 139.368 84.414 139.396 85.1H140.656C140.628 83.798 139.648 82.958 138.15 82.958C136.638 82.958 135.574 83.756 135.574 85.016C135.574 86.024 136.148 86.626 137.366 86.92L138.57 87.2C139.284 87.382 139.508 87.662 139.508 88.124C139.508 88.754 138.976 89.132 138.052 89.132C137.184 89.132 136.652 88.712 136.652 88.012H135.392ZM145.181 90.168C146.875 90.168 148.023 89.342 148.359 87.872H147.127C146.903 88.656 146.231 89.076 145.209 89.076C143.907 89.076 143.151 88.278 143.053 86.836L148.345 86.822V86.332C148.345 84.302 147.071 82.958 145.125 82.958C143.137 82.958 141.779 84.442 141.779 86.584C141.779 88.712 143.165 90.168 145.181 90.168ZM145.125 84.064C146.287 84.064 147.029 84.82 147.029 85.954H143.081C143.249 84.75 143.977 84.064 145.125 84.064ZM151.749 90.168C152.855 90.168 153.793 89.678 154.143 88.894L154.283 90H155.403V85.702C155.403 83.854 154.255 82.958 152.561 82.958C150.797 82.958 149.621 83.896 149.621 85.324H150.769C150.769 84.498 151.399 84.008 152.505 84.008C153.429 84.008 154.115 84.414 154.115 85.562V85.758L151.959 85.926C150.349 86.052 149.411 86.836 149.411 88.096C149.411 89.342 150.279 90.168 151.749 90.168ZM152.127 89.146C151.273 89.146 150.741 88.782 150.741 88.054C150.741 87.382 151.217 86.934 152.379 86.822L154.129 86.682V87.046C154.129 88.334 153.373 89.146 152.127 89.146ZM156.665 88.012C156.665 89.314 157.687 90.168 159.297 90.168C160.921 90.168 162.041 89.342 162.041 88.04C162.041 87.018 161.467 86.486 160.305 86.206L159.101 85.912C158.429 85.744 158.093 85.436 158.093 84.974C158.093 84.344 158.555 83.98 159.381 83.98C160.179 83.98 160.641 84.414 160.669 85.1H161.929C161.901 83.798 160.921 82.958 159.423 82.958C157.911 82.958 156.847 83.756 156.847 85.016C156.847 86.024 157.421 86.626 158.639 86.92L159.843 87.2C160.557 87.382 160.781 87.662 160.781 88.124C160.781 88.754 160.249 89.132 159.325 89.132C158.457 89.132 157.925 88.712 157.925 88.012H156.665ZM163.053 86.57C163.053 88.684 164.565 90.168 166.623 90.168C168.667 90.168 170.179 88.684 170.179 86.57C170.179 84.456 168.667 82.972 166.623 82.972C164.565 82.972 163.053 84.456 163.053 86.57ZM164.383 86.57C164.383 85.142 165.293 84.148 166.623 84.148C167.939 84.148 168.863 85.142 168.863 86.57C168.863 87.998 167.939 88.992 166.623 88.992C165.293 88.992 164.383 87.998 164.383 86.57ZM172.952 90V86.374C172.952 85.044 173.666 84.162 174.898 84.162C175.906 84.162 176.55 84.722 176.55 86.108V90H177.866V85.814C177.866 84.064 177.04 82.958 175.234 82.958C174.268 82.958 173.4 83.42 172.966 84.204L172.826 83.154H171.636V90H172.952ZM182.642 90.168C184.336 90.168 185.484 89.342 185.82 87.872H184.588C184.364 88.656 183.692 89.076 182.67 89.076C181.368 89.076 180.612 88.278 180.514 86.836L185.806 86.822V86.332C185.806 84.302 184.532 82.958 182.586 82.958C180.598 82.958 179.24 84.442 179.24 86.584C179.24 88.712 180.626 90.168 182.642 90.168ZM182.586 84.064C183.748 84.064 184.49 84.82 184.49 85.954H180.542C180.71 84.75 181.438 84.064 182.586 84.064ZM190.02 90.168C191.112 90.168 192.036 89.692 192.484 88.754L192.596 90H193.772V79.696H192.47V84.26C192.008 83.42 191.126 82.958 190.076 82.958C188.046 82.958 186.828 84.498 186.828 86.598C186.828 88.684 188.032 90.168 190.02 90.168ZM190.286 88.978C188.942 88.978 188.158 87.97 188.158 86.556C188.158 85.156 188.942 84.148 190.286 84.148C191.63 84.148 192.456 85.156 192.456 86.556C192.456 87.984 191.63 88.978 190.286 88.978ZM196.651 90.168C197.183 90.168 197.645 89.72 197.645 89.188C197.645 88.642 197.183 88.194 196.651 88.194C196.105 88.194 195.643 88.642 195.643 89.188C195.643 89.72 196.105 90.168 196.651 90.168ZM200.144 80.9C200.144 80.144 199.696 79.682 199.136 79.682C198.576 79.682 198.212 80.074 198.212 80.606C198.212 81.152 198.576 81.46 198.996 81.46C199.164 81.46 199.29 81.432 199.388 81.376C199.388 81.824 198.996 82.188 198.45 82.286V82.874C199.43 82.748 200.144 81.922 200.144 80.9ZM202.65 80.9C202.65 80.144 202.202 79.682 201.628 79.682C201.082 79.682 200.704 80.074 200.704 80.606C200.704 81.152 201.068 81.46 201.502 81.46C201.67 81.46 201.782 81.432 201.88 81.376C201.88 81.824 201.488 82.188 200.942 82.286V82.874C201.936 82.748 202.65 81.922 202.65 80.9Z" fill="#333F72"/>
<path d="M135.84 114.85H139.998L140.18 113.73H136.008L135.84 114.85ZM146.598 118L147.298 113.604C147.508 112.33 147.648 111.182 147.662 110.636L149.412 118H150.672L154.732 110.608C154.592 111.196 154.41 112.134 154.172 113.59L153.472 118H154.76L156.37 107.878H154.998L150.238 116.446L148.152 107.878H146.906L145.31 118H146.598ZM158.886 118.168C159.95 118.168 160.916 117.678 161.378 116.88L161.322 118H162.414L163.1 113.688C163.366 112.022 162.386 110.972 160.566 110.972C158.858 110.972 157.752 111.826 157.514 113.324H158.676C158.816 112.442 159.418 111.994 160.454 111.994C161.532 111.994 162.05 112.554 161.868 113.576L161.84 113.758L159.698 113.926C157.892 114.08 156.856 114.948 156.856 116.334C156.856 117.44 157.668 118.168 158.886 118.168ZM159.334 117.174C158.578 117.174 158.13 116.81 158.13 116.222C158.13 115.41 158.732 114.906 159.964 114.808L161.714 114.668L161.658 115.032C161.462 116.348 160.566 117.174 159.334 117.174ZM169.14 111.098C168.916 111.042 168.678 111.014 168.44 111.014C167.544 111.014 166.802 111.504 166.396 112.232L166.48 111.154H165.332L164.24 118H165.5L166.088 114.332C166.284 113.016 167.194 112.26 168.384 112.26H168.958L169.14 111.098ZM171.393 118L172.317 112.218H173.633L173.801 111.154H172.485L172.821 109.012H171.561L171.225 111.154H169.909L169.741 112.218H171.057L170.147 118H171.393ZM175.125 118L175.699 114.388C175.923 112.96 176.763 112.106 177.925 112.106C179.003 112.106 179.521 112.82 179.311 114.108L178.695 118H179.941L180.613 113.814C180.865 112.162 179.913 110.958 178.359 110.958C177.379 110.958 176.665 111.364 176.049 112.246L176.763 107.696H175.503L173.879 118H175.125ZM183.755 118.168C184.819 118.168 185.785 117.678 186.247 116.88L186.191 118H187.283L187.969 113.688C188.235 112.022 187.255 110.972 185.435 110.972C183.727 110.972 182.621 111.826 182.383 113.324H183.545C183.685 112.442 184.287 111.994 185.323 111.994C186.401 111.994 186.919 112.554 186.737 113.576L186.709 113.758L184.567 113.926C182.761 114.08 181.725 114.948 181.725 116.334C181.725 117.44 182.537 118.168 183.755 118.168ZM184.203 117.174C183.447 117.174 182.999 116.81 182.999 116.222C182.999 115.41 183.601 114.906 184.833 114.808L186.583 114.668L186.527 115.032C186.331 116.348 185.435 117.174 184.203 117.174ZM191.125 117.188C191.125 116.6 190.775 116.222 190.285 116.222C189.697 116.222 189.207 116.726 189.207 117.328C189.207 117.734 189.515 118.014 189.921 118.014C190.089 118.014 190.201 117.986 190.299 117.93C190.243 118.336 189.781 118.714 189.207 118.84L189.109 119.414C190.201 119.26 191.125 118.238 191.125 117.188ZM201.29 118.154C203.544 118.154 205.154 117.02 205.966 114.794H204.51C203.88 116.236 202.844 116.866 201.332 116.866C199.554 116.866 198.448 115.592 198.448 113.632C198.448 110.958 200.03 108.984 202.354 108.984C203.768 108.984 204.846 109.782 205.028 111.14H206.414C206.302 109.124 204.734 107.71 202.466 107.71C199.358 107.71 197.062 110.216 197.062 113.688C197.062 116.334 198.686 118.154 201.29 118.154ZM208.101 118L208.675 114.388C208.899 112.96 209.739 112.106 210.901 112.106C211.979 112.106 212.497 112.82 212.287 114.108L211.671 118H212.917L213.589 113.814C213.841 112.162 212.889 110.958 211.335 110.958C210.355 110.958 209.641 111.364 209.025 112.246L209.739 107.696H208.479L206.855 118H208.101ZM217.796 118.168C219.294 118.168 220.596 117.286 221.058 115.886H219.798C219.49 116.656 218.734 117.104 217.838 117.104C216.704 117.104 216.018 116.32 216.018 115.046C216.018 114.962 216.018 114.892 216.018 114.822L221.226 114.808L221.296 114.332C221.604 112.372 220.47 110.972 218.524 110.972C216.41 110.972 214.786 112.778 214.786 115.116C214.786 116.964 215.976 118.168 217.796 118.168ZM218.468 112.036C219.602 112.036 220.274 112.806 220.092 113.968H216.172C216.508 112.82 217.39 112.036 218.468 112.036ZM222.532 111.154L222.364 112.218H223.358L222.448 118H223.694L224.604 112.218H226.2L226.368 111.154H224.772L224.954 110.048C225.08 109.18 225.458 108.83 226.2 108.83C226.424 108.83 226.592 108.844 226.774 108.844L226.942 107.752C226.732 107.71 226.438 107.696 226.172 107.696C224.8 107.696 223.946 108.508 223.708 110.048L223.526 111.154H222.532ZM227.684 117.188C227.684 116.6 227.334 116.222 226.844 116.222C226.256 116.222 225.766 116.726 225.766 117.328C225.766 117.734 226.074 118.014 226.48 118.014C226.648 118.014 226.76 117.986 226.858 117.93C226.802 118.336 226.34 118.714 225.766 118.84L225.668 119.414C226.76 119.26 227.684 118.238 227.684 117.188ZM234.769 118L236.015 110.09L239.865 118H241.167L242.777 107.878H241.461L240.215 115.788L236.365 107.878H235.049L233.453 118H234.769ZM243.333 115.06C243.333 116.908 244.607 118.168 246.469 118.168C248.667 118.168 250.417 116.348 250.417 114.08C250.417 112.232 249.157 110.972 247.295 110.972C245.097 110.972 243.333 112.792 243.333 115.06ZM244.621 114.976C244.621 113.38 245.783 112.092 247.197 112.092C248.401 112.092 249.143 112.904 249.143 114.164C249.143 115.76 247.981 117.048 246.567 117.048C245.363 117.048 244.621 116.25 244.621 114.976ZM252.451 118L252.731 116.74C253.053 117.622 253.949 118.168 255.055 118.168C257.113 118.168 258.667 116.418 258.667 114.01C258.667 112.218 257.533 110.972 255.923 110.972C254.859 110.972 254.033 111.448 253.445 112.358L254.173 107.696H252.913L251.289 118H252.451ZM253.067 115.102C253.067 113.408 254.173 112.092 255.601 112.092C256.707 112.092 257.407 112.876 257.407 114.08C257.407 115.76 256.315 117.048 254.887 117.048C253.725 117.048 253.067 116.32 253.067 115.102ZM265.095 111.154L264.521 114.78C264.297 116.18 263.499 117.034 262.337 117.034C261.329 117.034 260.825 116.32 261.021 115.032L261.651 111.154H260.391L259.733 115.326C259.467 116.978 260.391 118.168 261.903 118.168C262.883 118.168 263.569 117.762 264.185 116.908L264.129 118H265.263L266.341 111.154H265.095Z" fill="#333F72"/>
</svg>
