<svg width="498" height="314" viewBox="0 0 498 314" fill="none" xmlns="http://www.w3.org/2000/svg">
<path d="M128.823 178.506C128.823 207.501 105.313 231.012 76.3172 231.012H68.7217C39.726 231.012 16.2159 207.501 16.2159 178.506C16.2159 149.51 39.726 126 68.7217 126H76.3172C105.313 126 128.823 149.51 128.823 178.506Z" fill="#333F72"/>
<path d="M141 313.056H0L1.98931 303.049C6.81189 279.418 23.1483 260.61 44.4882 252.05C52.566 248.795 61.3673 247.047 70.4699 247.047H70.5301C79.4519 247.047 88.0723 248.735 96.0295 251.869C117.611 260.369 134.188 279.237 139.011 303.049L141 313.056Z" fill="#E56E0C"/>
<path d="M42.0167 212.565C36.8927 217.086 29.056 216.604 24.5348 211.48C20.0137 206.356 20.4959 198.52 25.6199 193.998C30.7439 189.477 38.5203 189.959 43.1017 195.083" fill="#F3EDE1"/>
<path d="M42.0167 212.565C36.8927 217.086 29.056 216.604 24.5348 211.48C20.0137 206.356 20.4959 198.52 25.6199 193.998C30.7439 189.477 38.5203 189.959 43.1017 195.083" stroke="#333F72" stroke-width="0.904233"/>
<path d="M70.289 277.911C56.4241 277.911 45.2116 266.638 45.2116 252.834C45.2116 252.673 45.2116 252.512 45.2116 252.352C53.2292 249.096 61.7892 247.529 70.4699 247.529C79.0902 247.529 87.4091 249.096 95.3664 252.171C95.3664 252.372 95.3664 252.593 95.3664 252.834C95.3664 266.638 84.0936 277.911 70.289 277.911Z" fill="#F3EDE1"/>
<path fill-rule="evenodd" clip-rule="evenodd" d="M95.7883 251.869C95.7883 252.151 95.7883 252.472 95.7883 252.834C95.7883 266.94 84.395 278.333 70.289 278.333C56.183 278.333 44.7293 266.94 44.7293 252.834C44.7293 252.553 44.7494 252.271 44.7896 251.99C52.7469 248.795 61.4275 247.047 70.4698 247.047H70.5301C79.3916 247.047 87.8914 248.735 95.7883 251.869ZM70.4698 247.951C61.9098 247.951 53.5908 249.518 45.6336 252.653C45.6336 252.693 45.6336 252.753 45.6336 252.834C45.6336 266.397 56.6652 277.429 70.289 277.429C83.8525 277.429 94.8841 266.397 94.8841 252.834C94.8841 252.713 94.8841 252.593 94.8841 252.472C87.1077 249.458 78.9093 247.951 70.5301 247.951H70.4698Z" fill="#333F72"/>
<path d="M58.4134 256.21V225.526H82.5866V256.21" fill="#F3EDE1"/>
<path d="M58.4134 256.21V225.526H82.5866V256.21" stroke="#333F72" stroke-width="0.904233"/>
<path d="M82.1043 228.661V239.21C77.5228 241.682 72.3386 243.068 66.7926 243.068C64.0598 243.068 61.4275 242.747 58.8956 242.104V228.661H82.1043Z" fill="#F3CFBF"/>
<path d="M100.068 186.041V200.931C100.068 210.214 96.3309 218.533 90.2424 224.622C84.2142 230.65 75.835 234.448 66.6118 234.448C52.8675 234.448 41.1124 226.189 35.9282 214.374C34.1197 210.275 33.1552 205.693 33.1552 200.931V186.041C33.1552 167.534 48.1052 152.584 66.6118 152.584C85.0581 152.584 100.068 167.534 100.068 186.041Z" fill="#F3EDE1" stroke="#333F72" stroke-width="0.904233"/>
<path d="M99.7067 178.325V194.782H95.0047V178.325H99.7067Z" fill="#333F72"/>
<path d="M95.4266 195.083C99.9478 189.959 107.724 189.477 112.848 193.998C117.972 198.52 118.454 206.356 113.933 211.48C109.412 216.604 101.575 217.086 96.4514 212.565" fill="#F3EDE1"/>
<path d="M95.4266 195.083C99.9478 189.959 107.724 189.477 112.848 193.998C117.972 198.52 118.454 206.356 113.933 211.48C109.412 216.604 101.575 217.086 96.4514 212.565" stroke="#333F72" stroke-width="0.904233"/>
<path d="M102.419 206.115L108.749 199.966" stroke="#333F72" stroke-width="0.904233"/>
<path d="M90.6644 204.728C90.6644 209.189 87.0474 212.806 82.5866 212.806C78.1257 212.806 74.5088 209.189 74.5088 204.728C74.5088 200.268 78.1257 196.651 82.5866 196.651C87.0474 196.651 90.6644 200.268 90.6644 204.728Z" fill="#F3CFBF"/>
<path d="M52.3852 204.728C52.3852 209.189 48.7683 212.806 44.3074 212.806C39.8465 212.806 36.2296 209.189 36.2296 204.728C36.2296 200.268 39.8465 196.651 44.3074 196.651C48.7683 196.651 52.3852 200.268 52.3852 204.728Z" fill="#F3CFBF"/>
<path d="M80.4767 196.651C80.4767 198.338 79.1505 199.665 77.5229 199.665C75.835 199.665 74.5088 198.338 74.5088 196.651C74.5088 195.023 75.835 193.636 77.5229 193.636C79.1505 193.636 80.4767 195.023 80.4767 196.651Z" fill="#333F72"/>
<path d="M51.481 196.651C51.481 198.338 50.1548 199.665 48.5271 199.665C46.8392 199.665 45.513 198.338 45.513 196.651C45.513 195.023 46.8392 193.636 48.5271 193.636C50.1548 193.636 51.481 195.023 51.481 196.651Z" fill="#333F72"/>
<path d="M64.3813 210.335H56.7255L66.6118 152.765" fill="#F3EDE1"/>
<path d="M64.3813 210.335H56.7255L66.6118 152.765" stroke="#333F72" stroke-width="0.904233"/>
<path d="M58.4134 217.026C63.658 222.331 68.6011 217.026 68.6011 217.026" stroke="#333F72" stroke-width="0.904233"/>
<path d="M58.8956 147.882C58.8956 162.29 71.1932 183.449 108.086 183.449C108.086 183.449 107.001 147.882 58.8956 147.882Z" fill="#333F72"/>
<path d="M25.8008 288.159C23.2086 303.471 27.6092 313.056 40.389 313.056" stroke="#F3EDE1" stroke-width="1.20564"/>
<path d="M113.21 288.159C115.742 303.471 111.401 313.056 98.5614 313.056" stroke="#F3EDE1" stroke-width="1.20564"/>
<path d="M41.233 185.921C41.233 185.921 42.8004 182.123 46.8393 181.219C49.4917 180.555 52.3852 181.882 52.3852 185.921H41.233Z" fill="#333F72"/>
<path d="M73.8456 185.921C73.8456 181.882 76.7392 180.555 79.4519 181.219C83.4305 182.123 85.0581 185.921 85.0581 185.921H73.8456Z" fill="#333F72"/>
<path d="M46.2364 162.29L39.0025 151.379" stroke="#F3EDE1" stroke-width="1.20564"/>
<path d="M44.3074 165.665L34.3608 157.286" stroke="#F3EDE1" stroke-width="1.20564"/>
<path d="M39.7259 168.499L29.8999 162.712" stroke="#F3EDE1" stroke-width="1.20564"/>
<mask id="path-30-inside-1_1_2527" fill="white">
<path fill-rule="evenodd" clip-rule="evenodd" d="M228.654 144.434C237.79 152.323 252.989 156.117 267.704 155.997C275.04 155.938 282.197 154.905 288.345 152.957C294.504 151.005 299.576 148.159 302.827 144.524C303.03 144.298 303.324 144.176 303.628 144.193C303.931 144.21 304.211 144.364 304.387 144.611C306.281 147.272 310.038 149.593 314.976 151.305C319.882 153.006 325.816 154.059 331.887 154.281C337.959 154.504 344.125 153.896 349.5 152.308C354.884 150.717 359.397 148.167 362.273 144.567C362.513 144.267 362.904 144.13 363.278 144.217C376.304 147.215 395.648 149.719 411.392 147.544C419.27 146.455 426.128 144.211 430.855 140.382C435.524 136.599 438.19 131.213 437.628 123.579C437.605 123.267 437.729 122.963 437.963 122.756C438.196 122.55 438.513 122.464 438.82 122.524C457.723 126.269 471.643 119.918 480.863 110.837C490.139 101.7 494.616 89.8438 494.616 82.7261C494.616 82.6404 494.628 82.5551 494.649 82.4722C495.862 77.8512 494.747 69.6716 489.779 62.3453C484.851 55.0792 476.144 48.6819 462.212 47.5816C461.822 47.5508 461.486 47.2956 461.352 46.9283C456.125 32.645 444.446 24.7426 432.065 20.4454C419.675 16.1452 406.701 15.5028 399.156 15.6753C398.974 15.6795 398.793 15.6337 398.635 15.5428C383.875 7.0654 372.079 3.51986 359.96 3.05399C347.802 2.5866 335.249 5.21323 318.925 9.22139C318.742 9.26638 318.549 9.25861 318.37 9.19899C305.929 5.05495 295.271 2.35711 284.65 2.0329C274.049 1.70932 263.429 3.74962 251.076 9.16607C250.87 9.25625 250.64 9.27457 250.423 9.21808C231.763 4.36847 219.054 2.14022 207.686 2.7157C196.347 3.28972 186.26 6.65833 172.856 13.1657C172.715 13.234 172.561 13.2684 172.404 13.266C158.092 13.0437 147.831 14.4281 141.172 17.9556C137.869 19.705 135.469 21.9733 133.884 24.8334C132.295 27.7013 131.49 31.2318 131.49 35.558C131.49 36.0315 131.158 36.44 130.694 36.5369C116.531 39.4981 108 44.3543 104.012 49.9351C100.099 55.4118 100.42 61.8041 104.522 68.3592C104.741 68.7089 104.722 69.1571 104.475 69.4877C99.0027 76.8231 95.7194 82.2536 96.0188 87.6915C96.3154 93.0767 100.17 98.8283 110.142 106.655C110.44 106.889 110.58 107.27 110.505 107.641C109.719 111.51 109.984 114.659 111.074 117.215C112.161 119.766 114.112 121.825 116.876 123.446C122.453 126.718 131.207 128.128 142.191 128.128C142.743 128.128 143.191 128.575 143.191 129.128C143.191 131.339 143.943 133.074 145.29 134.443C146.661 135.836 148.701 136.901 151.34 137.628C156.63 139.086 164.03 139.104 172.288 138.006C172.573 137.968 172.862 138.055 173.078 138.245C173.295 138.434 173.42 138.709 173.42 138.997C173.42 139.259 173.609 139.784 174.33 140.545C175.02 141.274 176.076 142.089 177.485 142.921C180.298 144.582 184.394 146.237 189.427 147.384C199.484 149.677 213.173 149.92 227.636 144.26C227.982 144.125 228.374 144.192 228.654 144.434ZM288.949 154.864C294.84 152.997 299.944 150.286 303.506 146.717C305.878 149.434 309.753 151.611 314.321 153.195C319.441 154.97 325.574 156.051 331.814 156.28C338.053 156.509 344.442 155.888 350.067 154.226C355.453 152.634 360.212 150.066 363.432 146.303C376.564 149.267 395.826 151.713 411.666 149.525C419.703 148.414 426.979 146.096 432.114 141.936C437.032 137.951 439.916 132.332 439.69 124.722C458.669 128.086 472.828 121.558 482.266 112.261C491.804 102.867 496.564 90.6028 496.616 82.8542C497.95 77.5569 496.619 68.8677 491.434 61.2228C486.245 53.5707 477.182 46.9336 463.006 45.6419C457.395 30.9746 445.261 22.9086 432.72 18.5559C420.171 14.2003 407.098 13.5166 399.389 13.6699C384.53 5.17054 372.483 1.53393 360.037 1.05547C347.635 0.578694 334.905 3.24367 318.728 7.2103C306.342 3.09725 295.545 0.364522 284.711 0.0338336C273.87 -0.297084 263.047 1.77825 250.591 7.19545C232.081 2.39751 219.207 0.129933 207.585 0.718267C195.927 1.30845 185.609 4.76758 172.197 11.2626C157.96 11.0584 147.334 12.4282 140.235 16.1883C136.639 18.0932 133.933 20.6192 132.135 23.8642C130.448 26.9081 129.595 30.5252 129.499 34.7467C115.611 37.7616 106.728 42.6943 102.385 48.7724C98.011 54.8945 98.3849 61.96 102.469 68.8343C97.2803 75.8367 93.6853 81.6897 94.0219 87.8015C94.3644 94.0217 98.7358 100.158 108.428 107.851C107.727 111.755 108.011 115.131 109.234 117.999C110.521 121.02 112.808 123.379 115.864 125.171C121.749 128.623 130.603 130.045 141.235 130.124C141.44 132.403 142.356 134.312 143.865 135.846C144.131 136.116 144.415 136.374 144.714 136.619C143.737 138.855 140.252 143.862 133.244 151.315C132.533 152.071 131.785 152.853 131 153.66C131.401 153.32 132.071 152.996 133.019 152.537C133.275 152.413 133.551 152.279 133.848 152.132C137.015 150.568 142.51 147.548 150.537 139.48C150.627 139.506 150.718 139.531 150.809 139.556C156.275 141.062 163.637 141.099 171.644 140.105C171.899 140.748 172.348 141.361 172.878 141.921C173.737 142.828 174.96 143.753 176.469 144.643C179.491 146.428 183.788 148.15 188.982 149.334C199.248 151.674 213.128 151.941 227.807 146.338C237.493 154.401 252.994 158.117 267.72 157.997C275.222 157.936 282.582 156.881 288.949 154.864ZM145.534 137.232C146.672 138.009 147.995 138.64 149.461 139.142C144.068 144.511 139.872 147.537 136.809 149.382C136.495 149.571 136.192 149.748 135.9 149.915C138.914 146.597 141.169 143.825 142.768 141.634C143.9 140.082 144.715 138.806 145.238 137.822C145.348 137.616 145.447 137.419 145.534 137.232Z"/>
</mask>
<path fill-rule="evenodd" clip-rule="evenodd" d="M228.654 144.434C237.79 152.323 252.989 156.117 267.704 155.997C275.04 155.938 282.197 154.905 288.345 152.957C294.504 151.005 299.576 148.159 302.827 144.524C303.03 144.298 303.324 144.176 303.628 144.193C303.931 144.21 304.211 144.364 304.387 144.611C306.281 147.272 310.038 149.593 314.976 151.305C319.882 153.006 325.816 154.059 331.887 154.281C337.959 154.504 344.125 153.896 349.5 152.308C354.884 150.717 359.397 148.167 362.273 144.567C362.513 144.267 362.904 144.13 363.278 144.217C376.304 147.215 395.648 149.719 411.392 147.544C419.27 146.455 426.128 144.211 430.855 140.382C435.524 136.599 438.19 131.213 437.628 123.579C437.605 123.267 437.729 122.963 437.963 122.756C438.196 122.55 438.513 122.464 438.82 122.524C457.723 126.269 471.643 119.918 480.863 110.837C490.139 101.7 494.616 89.8438 494.616 82.7261C494.616 82.6404 494.628 82.5551 494.649 82.4722C495.862 77.8512 494.747 69.6716 489.779 62.3453C484.851 55.0792 476.144 48.6819 462.212 47.5816C461.822 47.5508 461.486 47.2956 461.352 46.9283C456.125 32.645 444.446 24.7426 432.065 20.4454C419.675 16.1452 406.701 15.5028 399.156 15.6753C398.974 15.6795 398.793 15.6337 398.635 15.5428C383.875 7.0654 372.079 3.51986 359.96 3.05399C347.802 2.5866 335.249 5.21323 318.925 9.22139C318.742 9.26638 318.549 9.25861 318.37 9.19899C305.929 5.05495 295.271 2.35711 284.65 2.0329C274.049 1.70932 263.429 3.74962 251.076 9.16607C250.87 9.25625 250.64 9.27457 250.423 9.21808C231.763 4.36847 219.054 2.14022 207.686 2.7157C196.347 3.28972 186.26 6.65833 172.856 13.1657C172.715 13.234 172.561 13.2684 172.404 13.266C158.092 13.0437 147.831 14.4281 141.172 17.9556C137.869 19.705 135.469 21.9733 133.884 24.8334C132.295 27.7013 131.49 31.2318 131.49 35.558C131.49 36.0315 131.158 36.44 130.694 36.5369C116.531 39.4981 108 44.3543 104.012 49.9351C100.099 55.4118 100.42 61.8041 104.522 68.3592C104.741 68.7089 104.722 69.1571 104.475 69.4877C99.0027 76.8231 95.7194 82.2536 96.0188 87.6915C96.3154 93.0767 100.17 98.8283 110.142 106.655C110.44 106.889 110.58 107.27 110.505 107.641C109.719 111.51 109.984 114.659 111.074 117.215C112.161 119.766 114.112 121.825 116.876 123.446C122.453 126.718 131.207 128.128 142.191 128.128C142.743 128.128 143.191 128.575 143.191 129.128C143.191 131.339 143.943 133.074 145.29 134.443C146.661 135.836 148.701 136.901 151.34 137.628C156.63 139.086 164.03 139.104 172.288 138.006C172.573 137.968 172.862 138.055 173.078 138.245C173.295 138.434 173.42 138.709 173.42 138.997C173.42 139.259 173.609 139.784 174.33 140.545C175.02 141.274 176.076 142.089 177.485 142.921C180.298 144.582 184.394 146.237 189.427 147.384C199.484 149.677 213.173 149.92 227.636 144.26C227.982 144.125 228.374 144.192 228.654 144.434ZM288.949 154.864C294.84 152.997 299.944 150.286 303.506 146.717C305.878 149.434 309.753 151.611 314.321 153.195C319.441 154.97 325.574 156.051 331.814 156.28C338.053 156.509 344.442 155.888 350.067 154.226C355.453 152.634 360.212 150.066 363.432 146.303C376.564 149.267 395.826 151.713 411.666 149.525C419.703 148.414 426.979 146.096 432.114 141.936C437.032 137.951 439.916 132.332 439.69 124.722C458.669 128.086 472.828 121.558 482.266 112.261C491.804 102.867 496.564 90.6028 496.616 82.8542C497.95 77.5569 496.619 68.8677 491.434 61.2228C486.245 53.5707 477.182 46.9336 463.006 45.6419C457.395 30.9746 445.261 22.9086 432.72 18.5559C420.171 14.2003 407.098 13.5166 399.389 13.6699C384.53 5.17054 372.483 1.53393 360.037 1.05547C347.635 0.578694 334.905 3.24367 318.728 7.2103C306.342 3.09725 295.545 0.364522 284.711 0.0338336C273.87 -0.297084 263.047 1.77825 250.591 7.19545C232.081 2.39751 219.207 0.129933 207.585 0.718267C195.927 1.30845 185.609 4.76758 172.197 11.2626C157.96 11.0584 147.334 12.4282 140.235 16.1883C136.639 18.0932 133.933 20.6192 132.135 23.8642C130.448 26.9081 129.595 30.5252 129.499 34.7467C115.611 37.7616 106.728 42.6943 102.385 48.7724C98.011 54.8945 98.3849 61.96 102.469 68.8343C97.2803 75.8367 93.6853 81.6897 94.0219 87.8015C94.3644 94.0217 98.7358 100.158 108.428 107.851C107.727 111.755 108.011 115.131 109.234 117.999C110.521 121.02 112.808 123.379 115.864 125.171C121.749 128.623 130.603 130.045 141.235 130.124C141.44 132.403 142.356 134.312 143.865 135.846C144.131 136.116 144.415 136.374 144.714 136.619C143.737 138.855 140.252 143.862 133.244 151.315C132.533 152.071 131.785 152.853 131 153.66C131.401 153.32 132.071 152.996 133.019 152.537C133.275 152.413 133.551 152.279 133.848 152.132C137.015 150.568 142.51 147.548 150.537 139.48C150.627 139.506 150.718 139.531 150.809 139.556C156.275 141.062 163.637 141.099 171.644 140.105C171.899 140.748 172.348 141.361 172.878 141.921C173.737 142.828 174.96 143.753 176.469 144.643C179.491 146.428 183.788 148.15 188.982 149.334C199.248 151.674 213.128 151.941 227.807 146.338C237.493 154.401 252.994 158.117 267.72 157.997C275.222 157.936 282.582 156.881 288.949 154.864ZM145.534 137.232C146.672 138.009 147.995 138.64 149.461 139.142C144.068 144.511 139.872 147.537 136.809 149.382C136.495 149.571 136.192 149.748 135.9 149.915C138.914 146.597 141.169 143.825 142.768 141.634C143.9 140.082 144.715 138.806 145.238 137.822C145.348 137.616 145.447 137.419 145.534 137.232Z" fill="white"/>
<path d="M267.704 155.997L267.712 156.997L267.704 155.997ZM228.654 144.434L229.308 143.677L229.308 143.677L228.654 144.434ZM288.345 152.957L288.042 152.004L288.345 152.957ZM302.827 144.524L302.082 143.858L302.827 144.524ZM303.628 144.193L303.683 143.194H303.683L303.628 144.193ZM304.387 144.611L305.202 144.031H305.202L304.387 144.611ZM314.976 151.305L314.649 152.25L314.976 151.305ZM331.887 154.281L331.85 155.281H331.85L331.887 154.281ZM349.5 152.308L349.783 153.267L349.5 152.308ZM362.273 144.567L363.054 145.191L363.054 145.191L362.273 144.567ZM363.278 144.217L363.054 145.191H363.054L363.278 144.217ZM411.392 147.544L411.256 146.553H411.256L411.392 147.544ZM430.855 140.382L431.484 141.159L430.855 140.382ZM437.628 123.579L436.631 123.652V123.652L437.628 123.579ZM437.963 122.756L438.625 123.505L438.625 123.505L437.963 122.756ZM438.82 122.524L438.625 123.505L438.82 122.524ZM480.863 110.837L480.161 110.124L480.863 110.837ZM494.649 82.4722L495.616 82.7261V82.7261L494.649 82.4722ZM489.779 62.3453L490.606 61.784V61.784L489.779 62.3453ZM462.212 47.5816L462.134 48.5785L462.212 47.5816ZM461.352 46.9283L460.413 47.272V47.272L461.352 46.9283ZM432.065 20.4454L431.737 21.3901L432.065 20.4454ZM399.156 15.6753L399.179 16.6751H399.179L399.156 15.6753ZM398.635 15.5428L398.137 16.4099V16.4099L398.635 15.5428ZM359.96 3.05399L359.999 2.05473L359.96 3.05399ZM318.925 9.22139L319.163 10.1926L319.163 10.1925L318.925 9.22139ZM318.37 9.19899L318.054 10.1477L318.054 10.1478L318.37 9.19899ZM284.65 2.0329L284.68 1.03337H284.68L284.65 2.0329ZM251.076 9.16607L251.478 10.0819L251.478 10.0819L251.076 9.16607ZM250.423 9.21808L250.171 10.1859L250.171 10.1859L250.423 9.21808ZM207.686 2.7157L207.737 3.71442L207.686 2.7157ZM172.856 13.1657L173.293 14.0653L173.293 14.0653L172.856 13.1657ZM172.404 13.266L172.42 12.2661L172.42 12.2661L172.404 13.266ZM141.172 17.9556L140.704 17.0719L141.172 17.9556ZM133.884 24.8334L134.759 25.318L133.884 24.8334ZM130.694 36.5369L130.49 35.558H130.49L130.694 36.5369ZM104.012 49.9351L103.199 49.3537H103.199L104.012 49.9351ZM104.522 68.3592L103.674 68.8897L103.674 68.8897L104.522 68.3592ZM104.475 69.4877L105.277 70.0857H105.277L104.475 69.4877ZM96.0188 87.6915L95.0203 87.7465L96.0188 87.6915ZM110.142 106.655L110.759 105.869L110.759 105.869L110.142 106.655ZM110.505 107.641L109.525 107.442H109.525L110.505 107.641ZM111.074 117.215L111.993 116.823L111.074 117.215ZM116.876 123.446L116.37 124.309L116.876 123.446ZM145.29 134.443L144.578 135.144H144.578L145.29 134.443ZM151.34 137.628L151.075 138.592L151.075 138.592L151.34 137.628ZM172.288 138.006L172.156 137.014L172.156 137.014L172.288 138.006ZM173.078 138.245L173.737 137.492L173.737 137.492L173.078 138.245ZM174.33 140.545L173.604 141.233L173.604 141.233L174.33 140.545ZM177.485 142.921L177.994 142.06L177.485 142.921ZM189.427 147.384L189.649 146.409L189.427 147.384ZM227.636 144.26L227.272 143.329H227.272L227.636 144.26ZM303.506 146.717L304.259 146.059C304.077 145.85 303.816 145.726 303.539 145.717C303.262 145.708 302.993 145.814 302.798 146.01L303.506 146.717ZM288.949 154.864L288.647 153.91L288.949 154.864ZM314.321 153.195L313.994 154.14L314.321 153.195ZM331.814 156.28L331.777 157.279L331.814 156.28ZM350.067 154.226L350.35 155.185L350.067 154.226ZM363.432 146.303L363.652 145.327C363.291 145.246 362.913 145.371 362.672 145.653L363.432 146.303ZM411.666 149.525L411.529 148.534H411.529L411.666 149.525ZM432.114 141.936L432.743 142.713L432.114 141.936ZM439.69 124.722L439.864 123.738C439.568 123.685 439.264 123.769 439.036 123.966C438.808 124.163 438.681 124.451 438.69 124.752L439.69 124.722ZM482.266 112.261L482.968 112.974L482.266 112.261ZM496.616 82.8542L495.646 82.61C495.627 82.6877 495.617 82.7674 495.616 82.8475L496.616 82.8542ZM491.434 61.2228L492.262 60.6615V60.6615L491.434 61.2228ZM463.006 45.6419L462.072 45.9992C462.208 46.3554 462.535 46.6031 462.915 46.6377L463.006 45.6419ZM432.72 18.5559L432.392 19.5006L432.72 18.5559ZM399.389 13.6699L398.893 14.5379C399.05 14.6278 399.228 14.6733 399.409 14.6697L399.389 13.6699ZM360.037 1.05547L359.999 2.05473V2.05473L360.037 1.05547ZM318.728 7.2103L318.413 8.15934C318.592 8.21867 318.784 8.22636 318.966 8.18153L318.728 7.2103ZM284.711 0.0338336L284.742 -0.965701L284.711 0.0338336ZM250.591 7.19545L250.34 8.16346C250.556 8.2195 250.785 8.20156 250.99 8.11248L250.591 7.19545ZM207.585 0.718267L207.636 1.71699V1.71699L207.585 0.718267ZM172.197 11.2626L172.183 12.2625C172.338 12.2648 172.493 12.2306 172.633 12.1627L172.197 11.2626ZM140.235 16.1883L139.767 15.3046L139.767 15.3046L140.235 16.1883ZM132.135 23.8642L131.26 23.3796L132.135 23.8642ZM129.499 34.7467L129.711 35.724C130.162 35.6259 130.488 35.2314 130.498 34.7694L129.499 34.7467ZM102.385 48.7724L103.199 49.3537L102.385 48.7724ZM102.469 68.8343L103.272 69.4297C103.512 69.106 103.534 68.6699 103.329 68.3236L102.469 68.8343ZM94.0219 87.8015L93.0234 87.8565L94.0219 87.8015ZM108.428 107.851L109.412 108.027C109.478 107.665 109.338 107.296 109.05 107.067L108.428 107.851ZM109.234 117.999L108.314 118.391L109.234 117.999ZM115.864 125.171L116.37 124.308L115.864 125.171ZM141.235 130.124L142.231 130.034C142.185 129.522 141.757 129.128 141.242 129.124L141.235 130.124ZM143.865 135.846L144.578 135.144L143.865 135.846ZM144.714 136.619L145.63 137.019C145.81 136.609 145.694 136.129 145.347 135.845L144.714 136.619ZM133.244 151.315L132.516 150.63L133.244 151.315ZM131 153.66L130.283 152.963C129.911 153.345 129.905 153.952 130.269 154.342C130.633 154.732 131.24 154.768 131.647 154.423L131 153.66ZM133.019 152.537L132.583 151.637H132.583L133.019 152.537ZM133.848 152.132L133.405 151.235L133.405 151.235L133.848 152.132ZM150.537 139.48L150.814 138.519C150.463 138.418 150.085 138.516 149.828 138.774L150.537 139.48ZM150.809 139.556L150.543 140.52L150.543 140.52L150.809 139.556ZM171.644 140.105L172.574 139.737C172.406 139.313 171.973 139.056 171.521 139.112L171.644 140.105ZM172.878 141.921L173.604 141.233L173.604 141.233L172.878 141.921ZM176.469 144.643L175.96 145.505L176.469 144.643ZM188.982 149.334L188.76 150.309L188.982 149.334ZM227.807 146.338L228.447 145.569C228.169 145.338 227.788 145.275 227.451 145.404L227.807 146.338ZM267.72 157.997L267.728 158.997L267.72 157.997ZM149.461 139.142L150.167 139.85C150.412 139.607 150.513 139.254 150.436 138.917C150.358 138.58 150.112 138.307 149.785 138.195L149.461 139.142ZM145.534 137.232L146.099 136.406C145.856 136.24 145.554 136.19 145.27 136.267C144.987 136.345 144.753 136.542 144.628 136.808L145.534 137.232ZM136.809 149.382L136.294 148.525H136.294L136.809 149.382ZM135.9 149.915L135.16 149.242C134.83 149.606 134.813 150.157 135.12 150.54C135.428 150.924 135.969 151.027 136.396 150.783L135.9 149.915ZM142.768 141.634L141.96 141.044L142.768 141.634ZM145.238 137.822L146.121 138.291H146.121L145.238 137.822ZM267.696 154.997C253.104 155.116 238.186 151.344 229.308 143.677L228.001 145.191C237.394 153.302 252.874 157.118 267.712 156.997L267.696 154.997ZM288.042 152.004C282.005 153.917 274.949 154.939 267.696 154.997L267.712 156.997C275.131 156.937 282.39 155.893 288.647 153.91L288.042 152.004ZM302.082 143.858C298.992 147.311 294.104 150.083 288.042 152.004L288.647 153.91C294.904 151.928 300.159 149.006 303.572 145.191L302.082 143.858ZM303.683 143.194C303.076 143.16 302.487 143.405 302.082 143.858L303.572 145.191H303.572L303.683 143.194ZM305.202 144.031C304.849 143.536 304.29 143.228 303.683 143.194L303.572 145.191H303.572L305.202 144.031ZM315.304 150.361C310.44 148.674 306.917 146.441 305.202 144.031L303.572 145.191C305.644 148.103 309.636 150.512 314.649 152.25L315.304 150.361ZM331.924 153.282C325.937 153.062 320.103 152.024 315.304 150.361L314.649 152.25C319.662 153.988 325.695 155.055 331.85 155.281L331.924 153.282ZM349.217 151.349C343.966 152.9 337.912 153.502 331.924 153.282L331.85 155.281C338.006 155.507 344.283 154.892 349.783 153.267L349.217 151.349ZM361.491 143.943C358.787 147.328 354.485 149.792 349.217 151.349L349.783 153.267C355.284 151.641 360.007 149.006 363.054 145.191L361.491 143.943ZM363.503 143.242C362.753 143.07 361.971 143.342 361.491 143.943L363.054 145.191L363.054 145.191L363.503 143.242ZM411.256 146.553C395.681 148.705 376.471 146.228 363.503 143.242L363.054 145.191C376.137 148.203 395.615 150.733 411.529 148.534L411.256 146.553ZM430.225 139.605C425.702 143.269 419.053 145.476 411.256 146.553L411.529 148.534C419.487 147.435 426.553 145.153 431.484 141.159L430.225 139.605ZM436.631 123.652C437.169 130.969 434.633 136.034 430.225 139.605L431.484 141.159C436.415 137.164 439.21 131.457 438.625 123.505L436.631 123.652ZM437.3 122.007C436.832 122.421 436.585 123.029 436.631 123.652L438.625 123.505V123.505L437.3 122.007ZM439.014 121.543C438.402 121.422 437.768 121.594 437.3 122.007L438.625 123.505L438.625 123.505L439.014 121.543ZM480.161 110.124C471.154 118.996 457.563 125.218 439.014 121.543L438.625 123.505C457.884 127.32 472.132 120.84 481.565 111.549L480.161 110.124ZM493.616 82.7261C493.616 89.5321 489.28 101.143 480.161 110.124L481.565 111.549C490.998 102.258 495.616 90.1554 495.616 82.7261H493.616ZM493.682 82.2183C493.639 82.384 493.616 82.5547 493.616 82.7261H495.616V82.7261L493.682 82.2183ZM488.951 62.9066C493.791 70.043 494.808 77.929 493.682 82.2183L495.616 82.7261C496.917 77.7733 495.704 69.3002 490.606 61.784L488.951 62.9066ZM462.134 48.5785C475.761 49.6548 484.193 55.8903 488.951 62.9066L490.606 61.784C485.509 54.268 476.528 47.7091 462.291 46.5847L462.134 48.5785ZM460.413 47.272C460.682 48.0065 461.354 48.5169 462.134 48.5785L462.291 46.5847V46.5847L460.413 47.272ZM431.737 21.3901C443.953 25.6301 455.326 33.3705 460.413 47.272L462.291 46.5847C456.924 31.9194 444.938 23.8551 432.392 19.5006L431.737 21.3901ZM399.179 16.6751C406.662 16.504 419.503 17.1442 431.737 21.3901L432.392 19.5006C419.846 15.1462 406.74 14.5017 399.133 14.6756L399.179 16.6751ZM398.137 16.4099C398.454 16.5917 398.814 16.6834 399.179 16.6751L399.133 14.6756L399.133 14.6756L398.137 16.4099ZM359.922 4.05325C371.843 4.51152 383.483 7.99309 398.137 16.4099L399.133 14.6756C384.268 6.13771 372.315 2.52819 359.999 2.05473L359.922 4.05325ZM319.163 10.1925C335.495 6.18257 347.921 3.59192 359.922 4.05325L359.999 2.05473C347.683 1.58127 335.004 4.24389 318.686 8.25024L319.163 10.1925ZM318.054 10.1478C318.412 10.267 318.797 10.2825 319.163 10.1926L318.686 8.25023L318.686 8.25023L318.054 10.1478ZM284.619 3.03244C295.094 3.35218 305.642 6.01359 318.054 10.1477L318.686 8.25024C306.215 4.09631 295.448 1.36204 284.68 1.03337L284.619 3.03244ZM251.478 10.0819C263.711 4.71758 274.184 2.71393 284.619 3.03244L284.68 1.03337C273.913 0.704721 263.146 2.78167 250.674 8.25024L251.478 10.0819ZM250.171 10.1859C250.606 10.2989 251.066 10.2623 251.478 10.0819L250.674 8.25022L250.674 8.25023L250.171 10.1859ZM207.737 3.71442C218.943 3.14714 231.526 5.34024 250.171 10.1859L250.674 8.25024C231.999 3.39671 219.166 1.1333 207.636 1.71698L207.737 3.71442ZM173.293 14.0653C186.641 7.58527 196.588 4.27879 207.737 3.71442L207.636 1.71698C196.106 2.30066 185.88 5.73139 172.42 12.2661L173.293 14.0653ZM172.388 14.2658C172.702 14.2707 173.011 14.202 173.293 14.0653L172.42 12.2661L172.42 12.2661L172.388 14.2658ZM141.64 18.8393C148.06 15.4386 158.098 14.0439 172.388 14.2658L172.42 12.2661C158.085 12.0434 147.602 13.4177 140.704 17.0719L141.64 18.8393ZM134.759 25.318C136.237 22.6503 138.484 20.5109 141.64 18.8393L140.704 17.0719C137.254 18.8991 134.701 21.2963 133.01 24.3488L134.759 25.318ZM132.49 35.558C132.49 31.3544 133.272 28.0014 134.759 25.318L133.01 24.3488C131.318 27.4013 130.49 31.1093 130.49 35.558H132.49ZM130.899 37.5157C131.826 37.322 132.49 36.5049 132.49 35.558H130.49H130.49L130.899 37.5157ZM104.826 50.5164C108.595 45.2412 116.823 40.4585 130.899 37.5157L130.49 35.558C116.238 38.5376 107.405 43.4673 103.199 49.3537L104.826 50.5164ZM105.369 67.8288C101.425 61.5257 101.205 55.5841 104.826 50.5164L103.199 49.3537C98.9935 55.2395 99.4144 62.0824 103.674 68.8897L105.369 67.8288ZM105.277 70.0857C105.77 69.4244 105.807 68.5281 105.369 67.8288L103.674 68.8897L103.674 68.8897L105.277 70.0857ZM97.0173 87.6365C96.8802 85.1467 97.5578 82.6054 98.9782 79.746C100.403 76.8773 102.546 73.7461 105.277 70.0857L103.674 68.8897C100.932 72.5647 98.697 75.8165 97.187 78.8563C95.6723 81.9056 94.858 84.7985 95.0203 87.7465L97.0173 87.6365ZM110.759 105.869C100.815 98.0634 97.2881 92.5535 97.0173 87.6365L95.0203 87.7465C95.3427 93.5999 99.5247 99.5931 109.525 107.442L110.759 105.869ZM111.485 107.84C111.635 107.098 111.354 106.336 110.759 105.869L109.525 107.442L109.525 107.442L111.485 107.84ZM111.993 116.823C111.002 114.497 110.729 111.563 111.485 107.84L109.525 107.442C108.709 111.458 108.966 114.821 110.154 117.607L111.993 116.823ZM117.382 122.583C114.765 121.048 112.981 119.14 111.993 116.823L110.154 117.607C111.341 120.393 113.46 122.602 116.37 124.309L117.382 122.583ZM142.191 127.128C131.243 127.128 122.718 125.714 117.382 122.583L116.37 124.309C122.189 127.722 131.17 129.128 142.191 129.128V127.128ZM144.191 129.128C144.191 128.023 143.295 127.128 142.191 127.128V129.128H144.191ZM146.003 133.741C144.844 132.564 144.191 131.083 144.191 129.128H142.191C142.191 131.595 143.042 133.584 144.578 135.144L146.003 133.741ZM151.606 136.664C149.068 135.965 147.209 134.966 146.003 133.741L144.578 135.144C146.114 136.705 148.334 137.837 151.075 138.592L151.606 136.664ZM172.156 137.014C163.948 138.106 156.704 138.069 151.606 136.664L151.075 138.592C156.555 140.102 164.112 140.102 172.42 138.997L172.156 137.014ZM173.737 137.492C173.304 137.113 172.727 136.938 172.156 137.014L172.42 138.997H172.42L173.737 137.492ZM174.42 138.997C174.42 138.42 174.171 137.872 173.737 137.492L172.42 138.997H172.42H174.42ZM175.056 139.858C174.742 139.526 174.574 139.277 174.488 139.115C174.396 138.942 174.42 138.909 174.42 138.997H172.42C172.42 139.649 172.829 140.414 173.604 141.233L175.056 139.858ZM177.994 142.06C176.634 141.257 175.661 140.497 175.056 139.858L173.604 141.233C174.379 142.051 175.518 142.921 176.977 143.782L177.994 142.06ZM189.649 146.409C184.697 145.28 180.702 143.659 177.994 142.06L176.977 143.782C179.895 145.505 184.091 147.193 189.204 148.359L189.649 146.409ZM227.272 143.329C213.019 148.907 199.538 148.664 189.649 146.409L189.204 148.359C199.431 150.691 213.326 150.934 228.001 145.191L227.272 143.329ZM229.308 143.677C228.747 143.193 227.963 143.058 227.272 143.329L228.001 145.191L228.001 145.191L229.308 143.677ZM302.798 146.01C299.387 149.428 294.444 152.073 288.647 153.91L289.251 155.817C295.235 153.921 300.501 151.143 304.213 147.423L302.798 146.01ZM314.649 152.25C310.156 150.692 306.468 148.59 304.259 146.059L302.752 147.374C305.288 150.279 309.349 152.529 313.994 154.14L314.649 152.25ZM331.85 155.281C325.695 155.055 319.662 153.988 314.649 152.25L313.994 154.14C319.22 155.952 325.453 157.047 331.777 157.279L331.85 155.281ZM349.783 153.267C344.283 154.892 338.006 155.507 331.85 155.281L331.777 157.279C338.1 157.512 344.6 156.884 350.35 155.185L349.783 153.267ZM362.672 145.653C359.62 149.22 355.058 151.708 349.783 153.267L350.35 155.185C355.849 153.56 360.804 150.912 364.192 146.953L362.672 145.653ZM411.529 148.534C395.857 150.699 376.728 148.279 363.652 145.327L363.212 147.278C376.4 150.255 395.794 152.727 411.803 150.515L411.529 148.534ZM431.484 141.159C426.553 145.153 419.487 147.435 411.529 148.534L411.803 150.515C419.92 149.394 427.404 147.038 432.743 142.713L431.484 141.159ZM438.69 124.752C438.907 132.051 436.159 137.371 431.484 141.159L432.743 142.713C437.905 138.532 440.925 132.613 440.689 124.693L438.69 124.752ZM481.565 111.549C472.333 120.642 458.493 127.039 439.864 123.738L439.515 125.707C458.845 129.133 473.322 122.475 482.968 112.974L481.565 111.549ZM495.616 82.8475C495.566 90.2887 490.945 102.31 481.565 111.549L482.968 112.974C492.663 103.425 497.562 90.9169 497.616 82.8609L495.616 82.8475ZM490.606 61.784C495.663 69.2396 496.898 77.6395 495.646 82.61L497.586 83.0984C499.002 77.4744 497.575 68.4958 492.262 60.6615L490.606 61.784ZM462.915 46.6377C476.79 47.902 485.583 54.3774 490.606 61.784L492.262 60.6615C486.906 52.7641 477.574 45.9652 463.097 44.646L462.915 46.6377ZM432.392 19.5006C444.771 23.7971 456.604 31.7053 462.072 45.9992L463.94 45.2846C458.186 30.2438 445.751 22.0201 433.048 17.6112L432.392 19.5006ZM399.409 14.6697C407.056 14.5177 419.998 15.1987 432.392 19.5006L433.048 17.6112C420.344 13.2018 407.14 12.5156 399.37 12.6701L399.409 14.6697ZM359.999 2.05473C372.249 2.52564 384.139 6.099 398.893 14.5379L399.886 12.8019C384.921 4.24208 372.718 0.54221 360.076 0.0562086L359.999 2.05473ZM318.966 8.18153C335.149 4.21339 347.754 1.58399 359.999 2.05473L360.076 0.0562087C347.516 -0.426605 334.66 2.27396 318.49 6.23907L318.966 8.18153ZM284.68 1.03337C295.369 1.35962 306.058 4.0564 318.413 8.15934L319.043 6.26126C306.627 2.1381 295.72 -0.630578 284.742 -0.965701L284.68 1.03337ZM250.99 8.11248C263.327 2.74691 274.004 0.707472 284.68 1.03337L284.742 -0.965701C273.736 -1.30164 262.767 0.809591 250.192 6.27842L250.99 8.11248ZM207.636 1.71699C219.096 1.13681 231.846 3.36966 250.34 8.16346L250.842 6.22744C232.316 1.42537 219.317 -0.876944 207.535 -0.280455L207.636 1.71699ZM172.633 12.1627C185.988 5.69523 196.167 2.29756 207.636 1.71699L207.535 -0.280455C195.686 0.319327 185.23 3.83994 171.761 10.3626L172.633 12.1627ZM140.704 17.072C147.564 13.4381 157.969 12.0586 172.183 12.2625L172.211 10.2627C157.951 10.0582 147.104 11.4183 139.767 15.3046L140.704 17.072ZM133.01 24.3488C134.701 21.2963 137.254 18.8991 140.704 17.072L139.767 15.3046C136.024 17.2872 133.164 19.9421 131.26 23.3796L133.01 24.3488ZM130.498 34.7694C130.592 30.6689 131.419 27.2193 133.01 24.3488L131.26 23.3796C129.478 26.5969 128.598 30.3815 128.499 34.724L130.498 34.7694ZM103.199 49.3537C107.327 43.5764 115.913 38.7194 129.711 35.724L129.287 33.7695C115.309 36.8039 106.129 41.8121 101.572 48.191L103.199 49.3537ZM103.329 68.3236C99.397 61.7058 99.1073 55.0802 103.199 49.3537L101.572 48.191C96.9146 54.7088 97.3727 62.2142 101.609 69.3451L103.329 68.3236ZM95.0203 87.7465C94.7063 82.0433 98.0579 76.467 103.272 69.4297L101.666 68.239C96.5027 75.2064 92.6643 81.3361 93.0234 87.8565L95.0203 87.7465ZM109.05 107.067C99.3897 99.4001 95.3375 93.5047 95.0203 87.7465L93.0234 87.8565C93.3914 94.5386 98.0818 100.915 107.807 108.634L109.05 107.067ZM110.154 117.607C109.024 114.957 108.737 111.786 109.412 108.027L107.444 107.674C106.716 111.723 106.998 115.305 108.314 118.391L110.154 117.607ZM116.37 124.308C113.46 122.602 111.341 120.393 110.154 117.607L108.314 118.391C109.702 121.647 112.156 124.155 115.358 126.034L116.37 124.308ZM141.242 129.124C130.65 129.045 122.018 127.622 116.37 124.308L115.358 126.034C121.479 129.624 130.556 131.044 141.227 131.124L141.242 129.124ZM144.578 135.144C143.229 133.774 142.415 132.08 142.231 130.034L140.239 130.214C140.465 132.725 141.482 134.85 143.152 136.547L144.578 135.144ZM145.347 135.845C145.074 135.621 144.818 135.388 144.578 135.144L143.152 136.547C143.445 136.844 143.755 137.126 144.081 137.393L145.347 135.845ZM143.798 136.218C142.895 138.283 139.517 143.183 132.516 150.63L133.973 152C140.986 144.541 144.578 139.426 145.63 137.019L143.798 136.218ZM132.516 150.63C131.808 151.382 131.064 152.16 130.283 152.963L131.717 154.357C132.506 153.547 133.257 152.761 133.973 152L132.516 150.63ZM131.647 154.423C131.926 154.186 132.449 153.923 133.454 153.437L132.583 151.637C131.693 152.068 130.876 152.454 130.353 152.897L131.647 154.423ZM133.454 153.437C133.71 153.313 133.99 153.177 134.291 153.029L133.405 151.235C133.112 151.38 132.839 151.512 132.583 151.637L133.454 153.437ZM134.291 153.029C137.546 151.421 143.133 148.339 151.246 140.185L149.828 138.774C141.886 146.757 136.484 149.715 133.405 151.235L134.291 153.029ZM151.075 138.592C150.987 138.568 150.9 138.544 150.814 138.519L150.261 140.441C150.354 140.468 150.449 140.494 150.543 140.52L151.075 138.592ZM171.521 139.112C163.565 140.101 156.355 140.047 151.075 138.592L150.543 140.52C156.195 142.077 163.709 142.098 171.768 141.097L171.521 139.112ZM173.604 141.233C173.123 140.725 172.765 140.218 172.574 139.737L170.715 140.473C171.033 141.278 171.573 141.997 172.152 142.608L173.604 141.233ZM176.977 143.782C175.518 142.921 174.379 142.051 173.604 141.233L172.152 142.608C173.096 143.605 174.402 144.585 175.96 145.505L176.977 143.782ZM189.204 148.359C184.091 147.193 179.895 145.505 176.977 143.782L175.96 145.505C179.088 147.351 183.485 149.106 188.76 150.309L189.204 148.359ZM227.451 145.404C212.98 150.928 199.303 150.661 189.204 148.359L188.76 150.309C199.192 152.687 213.277 152.955 228.164 147.272L227.451 145.404ZM267.712 156.997C253.109 157.116 237.88 153.422 228.447 145.569L227.167 147.107C237.107 155.381 252.878 159.118 267.728 158.997L267.712 156.997ZM288.647 153.91C282.39 155.893 275.131 156.937 267.712 156.997L267.728 158.997C275.313 158.936 282.774 157.869 289.251 155.817L288.647 153.91ZM149.785 138.195C148.386 137.717 147.147 137.123 146.099 136.406L144.97 138.057C146.197 138.896 147.605 139.563 149.137 140.088L149.785 138.195ZM137.325 150.238C140.462 148.349 144.721 145.272 150.167 139.85L148.756 138.433C143.415 143.75 139.282 146.725 136.294 148.525L137.325 150.238ZM136.396 150.783C136.694 150.613 137.004 150.432 137.325 150.238L136.294 148.525C135.986 148.71 135.69 148.884 135.405 149.046L136.396 150.783ZM141.96 141.044C140.386 143.201 138.156 145.945 135.16 149.242L136.641 150.587C139.673 147.249 141.951 144.45 143.575 142.223L141.96 141.044ZM144.356 137.352C143.862 138.28 143.076 139.515 141.96 141.044L143.575 142.223C144.723 140.65 145.567 139.332 146.121 138.291L144.356 137.352ZM144.628 136.808C144.549 136.977 144.459 137.159 144.356 137.352L146.121 138.291C146.238 138.072 146.345 137.86 146.44 137.655L144.628 136.808Z" fill="#333F72" mask="url(#path-30-inside-1_1_2527)"/>
<path d="M146.8 41.95C146.8 41.404 146.45 41.096 146.016 41.096C145.848 41.096 145.722 41.138 145.624 41.194C145.624 40.746 146.016 40.382 146.562 40.27V39.682C145.582 39.822 144.868 40.634 144.868 41.656C144.868 42.412 145.316 42.874 145.876 42.874C146.436 42.874 146.8 42.482 146.8 41.95ZM149.306 41.95C149.306 41.404 148.942 41.096 148.508 41.096C148.354 41.096 148.228 41.124 148.13 41.18C148.13 40.746 148.522 40.382 149.068 40.27V39.682C148.088 39.822 147.36 40.634 147.36 41.656C147.36 42.412 147.808 42.874 148.382 42.874C148.928 42.874 149.306 42.482 149.306 41.95ZM150.676 41.138H153.728V50H155.1V41.138H158.138V39.878H150.676V41.138ZM160.61 49.986V46.262C160.61 45.086 161.296 44.162 162.57 44.162C163.55 44.162 164.208 44.722 164.208 46.108V50H165.524V45.814C165.524 44.064 164.684 42.958 162.934 42.958C161.87 42.958 161.044 43.462 160.61 44.204V39.696H159.294V49.986H160.61ZM170.301 50.168C171.995 50.168 173.143 49.342 173.479 47.872H172.247C172.023 48.656 171.351 49.076 170.329 49.076C169.027 49.076 168.271 48.278 168.173 46.836L173.465 46.822V46.332C173.465 44.302 172.191 42.958 170.245 42.958C168.257 42.958 166.899 44.442 166.899 46.584C166.899 48.712 168.285 50.168 170.301 50.168ZM170.245 44.064C171.407 44.064 172.149 44.82 172.149 45.954H168.201C168.369 44.75 169.097 44.064 170.245 44.064ZM178.203 48.012C178.203 49.314 179.225 50.168 180.835 50.168C182.459 50.168 183.579 49.342 183.579 48.04C183.579 47.018 183.005 46.486 181.843 46.206L180.639 45.912C179.967 45.744 179.631 45.436 179.631 44.974C179.631 44.344 180.093 43.98 180.919 43.98C181.717 43.98 182.179 44.414 182.207 45.1H183.467C183.439 43.798 182.459 42.958 180.961 42.958C179.449 42.958 178.385 43.756 178.385 45.016C178.385 46.024 178.959 46.626 180.177 46.92L181.381 47.2C182.095 47.382 182.319 47.662 182.319 48.124C182.319 48.754 181.787 49.132 180.863 49.132C179.995 49.132 179.463 48.712 179.463 48.012H178.203ZM189.77 43.154V46.766C189.77 48.236 189.112 49.006 187.908 49.006C186.9 49.006 186.27 48.446 186.27 46.976V43.154H184.954V47.41C184.954 49.09 185.85 50.168 187.446 50.168C188.454 50.168 189.364 49.678 189.756 48.964L189.896 50H191.072V43.154H189.77ZM192.285 48.012C192.285 49.314 193.307 50.168 194.917 50.168C196.541 50.168 197.661 49.342 197.661 48.04C197.661 47.018 197.087 46.486 195.925 46.206L194.721 45.912C194.049 45.744 193.713 45.436 193.713 44.974C193.713 44.344 194.175 43.98 195.001 43.98C195.799 43.98 196.261 44.414 196.289 45.1H197.549C197.521 43.798 196.541 42.958 195.043 42.958C193.531 42.958 192.467 43.756 192.467 45.016C192.467 46.024 193.041 46.626 194.259 46.92L195.463 47.2C196.177 47.382 196.401 47.662 196.401 48.124C196.401 48.754 195.869 49.132 194.945 49.132C194.077 49.132 193.545 48.712 193.545 48.012H192.285ZM200.436 49.986V46.262C200.436 45.086 201.122 44.162 202.396 44.162C203.376 44.162 204.034 44.722 204.034 46.108V50H205.35V45.814C205.35 44.064 204.51 42.958 202.76 42.958C201.696 42.958 200.87 43.462 200.436 44.204V39.696H199.12V49.986H200.436ZM207.817 41.53C208.293 41.53 208.685 41.138 208.685 40.662C208.685 40.172 208.293 39.794 207.817 39.794C207.341 39.794 206.949 40.172 206.949 40.662C206.949 41.138 207.341 41.53 207.817 41.53ZM207.173 50H208.489V43.154H207.173V50ZM216.229 50.168C217.335 50.168 218.273 49.678 218.623 48.894L218.763 50H219.883V45.702C219.883 43.854 218.735 42.958 217.041 42.958C215.277 42.958 214.101 43.896 214.101 45.324H215.249C215.249 44.498 215.879 44.008 216.985 44.008C217.909 44.008 218.595 44.414 218.595 45.562V45.758L216.439 45.926C214.829 46.052 213.891 46.836 213.891 48.096C213.891 49.342 214.759 50.168 216.229 50.168ZM216.607 49.146C215.753 49.146 215.221 48.782 215.221 48.054C215.221 47.382 215.697 46.934 216.859 46.822L218.609 46.682V47.046C218.609 48.334 217.853 49.146 216.607 49.146ZM223.529 50V44.26H224.873V43.154H223.529V41.012H222.213V43.154H220.869V44.26H222.213V50H223.529ZM231.814 50V44.26H233.158V43.154H231.814V41.012H230.498V43.154H229.154V44.26H230.498V50H231.814ZM235.655 49.986V46.262C235.655 45.086 236.341 44.162 237.615 44.162C238.595 44.162 239.253 44.722 239.253 46.108V50H240.569V45.814C240.569 44.064 239.729 42.958 237.979 42.958C236.915 42.958 236.089 43.462 235.655 44.204V39.696H234.339V49.986H235.655ZM243.035 41.53C243.511 41.53 243.903 41.138 243.903 40.662C243.903 40.172 243.511 39.794 243.035 39.794C242.559 39.794 242.167 40.172 242.167 40.662C242.167 41.138 242.559 41.53 243.035 41.53ZM242.391 50H243.707V43.154H242.391V50ZM245.058 48.012C245.058 49.314 246.08 50.168 247.69 50.168C249.314 50.168 250.434 49.342 250.434 48.04C250.434 47.018 249.86 46.486 248.698 46.206L247.494 45.912C246.822 45.744 246.486 45.436 246.486 44.974C246.486 44.344 246.948 43.98 247.774 43.98C248.572 43.98 249.034 44.414 249.062 45.1H250.322C250.294 43.798 249.314 42.958 247.816 42.958C246.304 42.958 245.24 43.756 245.24 45.016C245.24 46.024 245.814 46.626 247.032 46.92L248.236 47.2C248.95 47.382 249.174 47.662 249.174 48.124C249.174 48.754 248.642 49.132 247.718 49.132C246.85 49.132 246.318 48.712 246.318 48.012H245.058ZM254.994 43.154V44.26H256.002V50H257.318V44.26H258.942V43.154H257.318V42.062C257.318 41.32 257.542 40.886 258.396 40.886H258.984V39.752C258.718 39.71 258.424 39.696 258.172 39.696C256.926 39.696 256.002 40.382 256.002 42.062V43.154H254.994ZM261.948 50.168C263.054 50.168 263.992 49.678 264.342 48.894L264.482 50H265.602V45.702C265.602 43.854 264.454 42.958 262.76 42.958C260.996 42.958 259.82 43.896 259.82 45.324H260.968C260.968 44.498 261.598 44.008 262.704 44.008C263.628 44.008 264.314 44.414 264.314 45.562V45.758L262.158 45.926C260.548 46.052 259.61 46.836 259.61 48.096C259.61 49.342 260.478 50.168 261.948 50.168ZM262.326 49.146C261.472 49.146 260.94 48.782 260.94 48.054C260.94 47.382 261.416 46.934 262.578 46.822L264.328 46.682V47.046C264.328 48.334 263.572 49.146 262.326 49.146ZM268.741 50V46.374C268.741 45.044 269.455 44.162 270.687 44.162C271.695 44.162 272.339 44.722 272.339 46.108V50H273.655V45.814C273.655 44.064 272.829 42.958 271.023 42.958C270.057 42.958 269.189 43.42 268.755 44.204L268.615 43.154H267.425V50H268.741ZM275.029 46.584C275.029 48.74 276.359 50.168 278.375 50.168C280.027 50.168 281.301 49.174 281.567 47.69H280.251C280.013 48.502 279.313 48.992 278.375 48.992C277.129 48.992 276.331 48.04 276.331 46.57C276.331 45.086 277.185 44.134 278.431 44.134C279.313 44.134 280.013 44.596 280.237 45.464H281.553C281.315 43.938 280.111 42.958 278.389 42.958C276.387 42.958 275.029 44.442 275.029 46.584ZM282.161 53.066C282.511 53.15 282.875 53.206 283.309 53.206C284.359 53.206 285.045 52.716 285.507 51.54L288.741 43.154H287.383L285.353 48.67L283.365 43.154H281.979L284.737 50.364L284.499 51.022C284.177 51.89 283.673 51.988 283.043 51.988H282.161V53.066ZM292.948 47.186C292.948 48.936 294.012 50.168 295.944 50.168C297.75 50.168 298.968 49.02 298.968 47.2V39.878H297.596V47.144C297.596 48.194 297.092 48.894 295.944 48.894C294.824 48.894 294.278 48.18 294.278 47.186V46.682H292.948V47.186ZM303.032 50.168C304.138 50.168 305.076 49.678 305.426 48.894L305.566 50H306.686V45.702C306.686 43.854 305.538 42.958 303.844 42.958C302.08 42.958 300.904 43.896 300.904 45.324H302.052C302.052 44.498 302.682 44.008 303.788 44.008C304.712 44.008 305.398 44.414 305.398 45.562V45.758L303.242 45.926C301.632 46.052 300.694 46.836 300.694 48.096C300.694 49.342 301.562 50.168 303.032 50.168ZM303.41 49.146C302.556 49.146 302.024 48.782 302.024 48.054C302.024 47.382 302.5 46.934 303.662 46.822L305.412 46.682V47.046C305.412 48.334 304.656 49.146 303.41 49.146ZM308.509 53.066H309.825V48.88C310.273 49.72 311.183 50.182 312.275 50.182C314.305 50.182 315.453 48.614 315.453 46.528C315.453 44.428 314.235 42.958 312.275 42.958C311.183 42.958 310.259 43.448 309.797 44.386L309.699 43.154H308.509V53.066ZM309.839 46.584C309.839 45.156 310.651 44.162 311.995 44.162C313.339 44.162 314.137 45.17 314.137 46.584C314.137 47.984 313.339 48.992 311.995 48.992C310.651 48.992 309.839 47.984 309.839 46.584ZM318.905 50.168C320.011 50.168 320.949 49.678 321.299 48.894L321.439 50H322.559V45.702C322.559 43.854 321.411 42.958 319.717 42.958C317.953 42.958 316.777 43.896 316.777 45.324H317.925C317.925 44.498 318.555 44.008 319.661 44.008C320.585 44.008 321.271 44.414 321.271 45.562V45.758L319.115 45.926C317.505 46.052 316.567 46.836 316.567 48.096C316.567 49.342 317.435 50.168 318.905 50.168ZM319.283 49.146C318.429 49.146 317.897 48.782 317.897 48.054C317.897 47.382 318.373 46.934 319.535 46.822L321.285 46.682V47.046C321.285 48.334 320.529 49.146 319.283 49.146ZM325.698 50V46.374C325.698 45.044 326.412 44.162 327.644 44.162C328.652 44.162 329.296 44.722 329.296 46.108V50H330.612V45.814C330.612 44.064 329.786 42.958 327.98 42.958C327.014 42.958 326.146 43.42 325.712 44.204L325.572 43.154H324.382V50H325.698ZM335.388 50.168C337.082 50.168 338.23 49.342 338.566 47.872H337.334C337.11 48.656 336.438 49.076 335.416 49.076C334.114 49.076 333.358 48.278 333.26 46.836L338.552 46.822V46.332C338.552 44.302 337.278 42.958 335.332 42.958C333.344 42.958 331.986 44.442 331.986 46.584C331.986 48.712 333.372 50.168 335.388 50.168ZM335.332 44.064C336.494 44.064 337.236 44.82 337.236 45.954H333.288C333.456 44.75 334.184 44.064 335.332 44.064ZM339.462 48.012C339.462 49.314 340.484 50.168 342.094 50.168C343.718 50.168 344.838 49.342 344.838 48.04C344.838 47.018 344.264 46.486 343.102 46.206L341.898 45.912C341.226 45.744 340.89 45.436 340.89 44.974C340.89 44.344 341.352 43.98 342.178 43.98C342.976 43.98 343.438 44.414 343.466 45.1H344.726C344.698 43.798 343.718 42.958 342.22 42.958C340.708 42.958 339.644 43.756 339.644 45.016C339.644 46.024 340.218 46.626 341.436 46.92L342.64 47.2C343.354 47.382 343.578 47.662 343.578 48.124C343.578 48.754 343.046 49.132 342.122 49.132C341.254 49.132 340.722 48.712 340.722 48.012H339.462ZM349.252 50.168C350.946 50.168 352.094 49.342 352.43 47.872H351.198C350.974 48.656 350.302 49.076 349.28 49.076C347.978 49.076 347.222 48.278 347.124 46.836L352.416 46.822V46.332C352.416 44.302 351.142 42.958 349.196 42.958C347.208 42.958 345.85 44.442 345.85 46.584C345.85 48.712 347.236 50.168 349.252 50.168ZM349.196 44.064C350.358 44.064 351.1 44.82 351.1 45.954H347.152C347.32 44.75 348.048 44.064 349.196 44.064ZM361.634 43.098C361.368 43.042 361.172 43.014 360.934 43.014C359.996 43.014 359.31 43.49 359.03 44.204L358.946 43.168H357.714V50H359.03V46.374C359.03 45.058 359.8 44.302 361.046 44.302H361.634V43.098ZM365.576 50.168C367.27 50.168 368.418 49.342 368.754 47.872H367.522C367.298 48.656 366.626 49.076 365.604 49.076C364.302 49.076 363.546 48.278 363.448 46.836L368.74 46.822V46.332C368.74 44.302 367.466 42.958 365.52 42.958C363.532 42.958 362.174 44.442 362.174 46.584C362.174 48.712 363.56 50.168 365.576 50.168ZM365.52 44.064C366.682 44.064 367.424 44.82 367.424 45.954H363.476C363.644 44.75 364.372 44.064 365.52 44.064ZM369.65 48.012C369.65 49.314 370.672 50.168 372.282 50.168C373.906 50.168 375.026 49.342 375.026 48.04C375.026 47.018 374.452 46.486 373.29 46.206L372.086 45.912C371.414 45.744 371.078 45.436 371.078 44.974C371.078 44.344 371.54 43.98 372.366 43.98C373.164 43.98 373.626 44.414 373.654 45.1H374.914C374.886 43.798 373.906 42.958 372.408 42.958C370.896 42.958 369.832 43.756 369.832 45.016C369.832 46.024 370.406 46.626 371.624 46.92L372.828 47.2C373.542 47.382 373.766 47.662 373.766 48.124C373.766 48.754 373.234 49.132 372.31 49.132C371.442 49.132 370.91 48.712 370.91 48.012H369.65ZM378.417 50V44.26H379.761V43.154H378.417V41.012H377.101V43.154H375.757V44.26H377.101V50H378.417ZM382.862 50.168C383.968 50.168 384.906 49.678 385.256 48.894L385.396 50H386.516V45.702C386.516 43.854 385.368 42.958 383.674 42.958C381.91 42.958 380.734 43.896 380.734 45.324H381.882C381.882 44.498 382.512 44.008 383.618 44.008C384.542 44.008 385.228 44.414 385.228 45.562V45.758L383.072 45.926C381.462 46.052 380.524 46.836 380.524 48.096C380.524 49.342 381.392 50.168 382.862 50.168ZM383.24 49.146C382.386 49.146 381.854 48.782 381.854 48.054C381.854 47.382 382.33 46.934 383.492 46.822L385.242 46.682V47.046C385.242 48.334 384.486 49.146 383.24 49.146ZM393.071 43.154V46.766C393.071 48.236 392.413 49.006 391.209 49.006C390.201 49.006 389.571 48.446 389.571 46.976V43.154H388.255V47.41C388.255 49.09 389.151 50.168 390.747 50.168C391.755 50.168 392.665 49.678 393.057 48.964L393.197 50H394.373V43.154H393.071ZM400.202 43.098C399.936 43.042 399.74 43.014 399.502 43.014C398.564 43.014 397.878 43.49 397.598 44.204L397.514 43.168H396.282V50H397.598V46.374C397.598 45.058 398.368 44.302 399.614 44.302H400.202V43.098ZM403.165 50.168C404.271 50.168 405.209 49.678 405.559 48.894L405.699 50H406.819V45.702C406.819 43.854 405.671 42.958 403.977 42.958C402.213 42.958 401.037 43.896 401.037 45.324H402.185C402.185 44.498 402.815 44.008 403.921 44.008C404.845 44.008 405.531 44.414 405.531 45.562V45.758L403.375 45.926C401.765 46.052 400.827 46.836 400.827 48.096C400.827 49.342 401.695 50.168 403.165 50.168ZM403.543 49.146C402.689 49.146 402.157 48.782 402.157 48.054C402.157 47.382 402.633 46.934 403.795 46.822L405.545 46.682V47.046C405.545 48.334 404.789 49.146 403.543 49.146ZM409.957 50V46.374C409.957 45.044 410.671 44.162 411.903 44.162C412.911 44.162 413.555 44.722 413.555 46.108V50H414.871V45.814C414.871 44.064 414.045 42.958 412.239 42.958C411.273 42.958 410.405 43.42 409.971 44.204L409.831 43.154H408.641V50H409.957ZM418.626 50V44.26H419.97V43.154H418.626V41.012H417.31V43.154H415.966V44.26H417.31V50H418.626ZM146.422 70H147.724L148.914 66.346C149.166 65.52 149.292 65.072 149.362 64.736C149.432 65.114 149.572 65.646 149.796 66.332L150.986 70H152.232L154.57 63.154H153.198L152.05 66.71C151.854 67.312 151.728 67.788 151.616 68.334C151.504 67.844 151.28 67.046 151.168 66.71L150.034 63.154H148.69L147.542 66.71C147.388 67.158 147.206 67.732 147.094 68.334C146.968 67.732 146.828 67.214 146.674 66.71L145.54 63.154H144.182L146.422 70ZM157.386 70.168C158.492 70.168 159.43 69.678 159.78 68.894L159.92 70H161.04V65.702C161.04 63.854 159.892 62.958 158.198 62.958C156.434 62.958 155.258 63.896 155.258 65.324H156.406C156.406 64.498 157.036 64.008 158.142 64.008C159.066 64.008 159.752 64.414 159.752 65.562V65.758L157.596 65.926C155.986 66.052 155.048 66.836 155.048 68.096C155.048 69.342 155.916 70.168 157.386 70.168ZM157.764 69.146C156.91 69.146 156.378 68.782 156.378 68.054C156.378 67.382 156.854 66.934 158.016 66.822L159.766 66.682V67.046C159.766 68.334 159.01 69.146 157.764 69.146ZM162.302 68.012C162.302 69.314 163.324 70.168 164.934 70.168C166.558 70.168 167.678 69.342 167.678 68.04C167.678 67.018 167.104 66.486 165.942 66.206L164.738 65.912C164.066 65.744 163.73 65.436 163.73 64.974C163.73 64.344 164.192 63.98 165.018 63.98C165.816 63.98 166.278 64.414 166.306 65.1H167.566C167.538 63.798 166.558 62.958 165.06 62.958C163.548 62.958 162.484 63.756 162.484 65.016C162.484 66.024 163.058 66.626 164.276 66.92L165.48 67.2C166.194 67.382 166.418 67.662 166.418 68.124C166.418 68.754 165.886 69.132 164.962 69.132C164.094 69.132 163.562 68.712 163.562 68.012H162.302ZM172.406 68.012C172.406 69.314 173.428 70.168 175.038 70.168C176.662 70.168 177.782 69.342 177.782 68.04C177.782 67.018 177.208 66.486 176.046 66.206L174.842 65.912C174.17 65.744 173.834 65.436 173.834 64.974C173.834 64.344 174.296 63.98 175.122 63.98C175.92 63.98 176.382 64.414 176.41 65.1H177.67C177.642 63.798 176.662 62.958 175.164 62.958C173.652 62.958 172.588 63.756 172.588 65.016C172.588 66.024 173.162 66.626 174.38 66.92L175.584 67.2C176.298 67.382 176.522 67.662 176.522 68.124C176.522 68.754 175.99 69.132 175.066 69.132C174.198 69.132 173.666 68.712 173.666 68.012H172.406ZM178.793 66.57C178.793 68.684 180.305 70.168 182.363 70.168C184.407 70.168 185.919 68.684 185.919 66.57C185.919 64.456 184.407 62.972 182.363 62.972C180.305 62.972 178.793 64.456 178.793 66.57ZM180.123 66.57C180.123 65.142 181.033 64.148 182.363 64.148C183.679 64.148 184.603 65.142 184.603 66.57C184.603 67.998 183.679 68.992 182.363 68.992C181.033 68.992 180.123 67.998 180.123 66.57ZM188.692 70V65.94C188.692 64.848 189.35 64.162 190.344 64.162C191.268 64.162 191.856 64.75 191.856 65.828V70H193.158V65.94C193.158 64.848 193.816 64.148 194.81 64.148C195.734 64.148 196.336 64.764 196.336 65.842V70H197.624V65.52C197.624 63.938 196.672 62.958 195.104 62.958C194.04 62.958 193.214 63.49 192.892 64.344C192.542 63.49 191.786 62.958 190.722 62.958C189.756 62.958 189.028 63.406 188.678 64.05L188.552 63.154H187.376V70H188.692ZM202.402 70.168C204.096 70.168 205.244 69.342 205.58 67.872H204.348C204.124 68.656 203.452 69.076 202.43 69.076C201.128 69.076 200.372 68.278 200.274 66.836L205.566 66.822V66.332C205.566 64.302 204.292 62.958 202.346 62.958C200.358 62.958 199 64.442 199 66.584C199 68.712 200.386 70.168 202.402 70.168ZM202.346 64.064C203.508 64.064 204.25 64.82 204.25 65.954H200.302C200.47 64.75 201.198 64.064 202.346 64.064ZM210.416 66.57C210.416 68.684 211.928 70.168 213.986 70.168C216.03 70.168 217.542 68.684 217.542 66.57C217.542 64.456 216.03 62.972 213.986 62.972C211.928 62.972 210.416 64.456 210.416 66.57ZM211.746 66.57C211.746 65.142 212.656 64.148 213.986 64.148C215.302 64.148 216.226 65.142 216.226 66.57C216.226 67.998 215.302 68.992 213.986 68.992C212.656 68.992 211.746 67.998 211.746 66.57ZM218.23 63.154V64.26H219.238V70H220.554V64.26H222.178V63.154H220.554V62.062C220.554 61.32 220.778 60.886 221.632 60.886H222.22V59.752C221.954 59.71 221.66 59.696 221.408 59.696C220.162 59.696 219.238 60.382 219.238 62.062V63.154H218.23ZM229.161 70V64.26H230.505V63.154H229.161V61.012H227.845V63.154H226.501V64.26H227.845V70H229.161ZM233.002 69.986V66.262C233.002 65.086 233.688 64.162 234.962 64.162C235.942 64.162 236.6 64.722 236.6 66.108V70H237.916V65.814C237.916 64.064 237.076 62.958 235.326 62.958C234.262 62.958 233.436 63.462 233.002 64.204V59.696H231.686V69.986H233.002ZM242.693 70.168C244.387 70.168 245.535 69.342 245.871 67.872H244.639C244.415 68.656 243.743 69.076 242.721 69.076C241.419 69.076 240.663 68.278 240.565 66.836L245.857 66.822V66.332C245.857 64.302 244.583 62.958 242.637 62.958C240.649 62.958 239.291 64.442 239.291 66.584C239.291 68.712 240.677 70.168 242.693 70.168ZM242.637 64.064C243.799 64.064 244.541 64.82 244.541 65.954H240.593C240.761 64.75 241.489 64.064 242.637 64.064ZM250.427 63.154V64.26H251.435V70H252.751V64.26H254.375V63.154H252.751V62.062C252.751 61.32 252.975 60.886 253.829 60.886H254.417V59.752C254.151 59.71 253.857 59.696 253.605 59.696C252.359 59.696 251.435 60.382 251.435 62.062V63.154H250.427ZM259.518 63.098C259.252 63.042 259.056 63.014 258.818 63.014C257.88 63.014 257.194 63.49 256.914 64.204L256.83 63.168H255.598V70H256.914V66.374C256.914 65.058 257.684 64.302 258.93 64.302H259.518V63.098ZM263.461 70.168C265.155 70.168 266.303 69.342 266.639 67.872H265.407C265.183 68.656 264.511 69.076 263.489 69.076C262.187 69.076 261.431 68.278 261.333 66.836L266.625 66.822V66.332C266.625 64.302 265.351 62.958 263.405 62.958C261.417 62.958 260.059 64.442 260.059 66.584C260.059 68.712 261.445 70.168 263.461 70.168ZM263.405 64.064C264.567 64.064 265.309 64.82 265.309 65.954H261.361C261.529 64.75 262.257 64.064 263.405 64.064ZM267.535 68.012C267.535 69.314 268.557 70.168 270.167 70.168C271.791 70.168 272.911 69.342 272.911 68.04C272.911 67.018 272.337 66.486 271.175 66.206L269.971 65.912C269.299 65.744 268.963 65.436 268.963 64.974C268.963 64.344 269.425 63.98 270.251 63.98C271.049 63.98 271.511 64.414 271.539 65.1H272.799C272.771 63.798 271.791 62.958 270.293 62.958C268.781 62.958 267.717 63.756 267.717 65.016C267.717 66.024 268.291 66.626 269.509 66.92L270.713 67.2C271.427 67.382 271.651 67.662 271.651 68.124C271.651 68.754 271.119 69.132 270.195 69.132C269.327 69.132 268.795 68.712 268.795 68.012H267.535ZM275.686 69.986V66.262C275.686 65.086 276.372 64.162 277.646 64.162C278.626 64.162 279.284 64.722 279.284 66.108V70H280.6V65.814C280.6 64.064 279.76 62.958 278.01 62.958C276.946 62.958 276.12 63.462 275.686 64.204V59.696H274.37V69.986H275.686ZM285.377 70.168C287.071 70.168 288.219 69.342 288.555 67.872H287.323C287.099 68.656 286.427 69.076 285.405 69.076C284.103 69.076 283.347 68.278 283.249 66.836L288.541 66.822V66.332C288.541 64.302 287.267 62.958 285.321 62.958C283.333 62.958 281.975 64.442 281.975 66.584C281.975 68.712 283.361 70.168 285.377 70.168ZM285.321 64.064C286.483 64.064 287.225 64.82 287.225 65.954H283.277C283.445 64.75 284.173 64.064 285.321 64.064ZM289.451 68.012C289.451 69.314 290.473 70.168 292.083 70.168C293.707 70.168 294.827 69.342 294.827 68.04C294.827 67.018 294.253 66.486 293.091 66.206L291.887 65.912C291.215 65.744 290.879 65.436 290.879 64.974C290.879 64.344 291.341 63.98 292.167 63.98C292.965 63.98 293.427 64.414 293.455 65.1H294.715C294.687 63.798 293.707 62.958 292.209 62.958C290.697 62.958 289.633 63.756 289.633 65.016C289.633 66.024 290.207 66.626 291.425 66.92L292.629 67.2C293.343 67.382 293.567 67.662 293.567 68.124C293.567 68.754 293.035 69.132 292.111 69.132C291.243 69.132 290.711 68.712 290.711 68.012H289.451ZM298.218 70V64.26H299.562V63.154H298.218V61.012H296.902V63.154H295.558V64.26H296.902V70H298.218ZM306.573 70.168C307.679 70.168 308.617 69.678 308.967 68.894L309.107 70H310.227V65.702C310.227 63.854 309.079 62.958 307.385 62.958C305.621 62.958 304.445 63.896 304.445 65.324H305.593C305.593 64.498 306.223 64.008 307.329 64.008C308.253 64.008 308.939 64.414 308.939 65.562V65.758L306.783 65.926C305.173 66.052 304.235 66.836 304.235 68.096C304.235 69.342 305.103 70.168 306.573 70.168ZM306.951 69.146C306.097 69.146 305.565 68.782 305.565 68.054C305.565 67.382 306.041 66.934 307.203 66.822L308.953 66.682V67.046C308.953 68.334 308.197 69.146 306.951 69.146ZM313.366 70V66.374C313.366 65.044 314.08 64.162 315.312 64.162C316.32 64.162 316.964 64.722 316.964 66.108V70H318.28V65.814C318.28 64.064 317.454 62.958 315.648 62.958C314.682 62.958 313.814 63.42 313.38 64.204L313.24 63.154H312.05V70H313.366ZM322.846 70.168C323.938 70.168 324.862 69.692 325.31 68.754L325.422 70H326.598V59.696H325.296V64.26C324.834 63.42 323.952 62.958 322.902 62.958C320.872 62.958 319.654 64.498 319.654 66.598C319.654 68.684 320.858 70.168 322.846 70.168ZM323.112 68.978C321.768 68.978 320.984 67.97 320.984 66.556C320.984 65.156 321.768 64.148 323.112 64.148C324.456 64.148 325.282 65.156 325.282 66.556C325.282 67.984 324.456 68.978 323.112 68.978ZM333.641 70V65.94C333.641 64.848 334.299 64.162 335.293 64.162C336.217 64.162 336.805 64.75 336.805 65.828V70H338.107V65.94C338.107 64.848 338.765 64.148 339.759 64.148C340.683 64.148 341.285 64.764 341.285 65.842V70H342.573V65.52C342.573 63.938 341.621 62.958 340.053 62.958C338.989 62.958 338.163 63.49 337.841 64.344C337.491 63.49 336.735 62.958 335.671 62.958C334.705 62.958 333.977 63.406 333.627 64.05L333.501 63.154H332.325V70H333.641ZM343.949 66.57C343.949 68.684 345.461 70.168 347.519 70.168C349.563 70.168 351.075 68.684 351.075 66.57C351.075 64.456 349.563 62.972 347.519 62.972C345.461 62.972 343.949 64.456 343.949 66.57ZM345.279 66.57C345.279 65.142 346.189 64.148 347.519 64.148C348.835 64.148 349.759 65.142 349.759 66.57C349.759 67.998 348.835 68.992 347.519 68.992C346.189 68.992 345.279 67.998 345.279 66.57ZM351.972 68.012C351.972 69.314 352.994 70.168 354.604 70.168C356.228 70.168 357.348 69.342 357.348 68.04C357.348 67.018 356.774 66.486 355.612 66.206L354.408 65.912C353.736 65.744 353.4 65.436 353.4 64.974C353.4 64.344 353.862 63.98 354.688 63.98C355.486 63.98 355.948 64.414 355.976 65.1H357.236C357.208 63.798 356.228 62.958 354.73 62.958C353.218 62.958 352.154 63.756 352.154 65.016C352.154 66.024 352.728 66.626 353.946 66.92L355.15 67.2C355.864 67.382 356.088 67.662 356.088 68.124C356.088 68.754 355.556 69.132 354.632 69.132C353.764 69.132 353.232 68.712 353.232 68.012H351.972ZM360.739 70V64.26H362.083V63.154H360.739V61.012H359.423V63.154H358.079V64.26H359.423V70H360.739ZM369.837 70.168C370.929 70.168 371.853 69.692 372.301 68.754L372.413 70H373.589V59.696H372.287V64.26C371.825 63.42 370.943 62.958 369.893 62.958C367.863 62.958 366.645 64.498 366.645 66.598C366.645 68.684 367.849 70.168 369.837 70.168ZM370.103 68.978C368.759 68.978 367.975 67.97 367.975 66.556C367.975 65.156 368.759 64.148 370.103 64.148C371.447 64.148 372.273 65.156 372.273 66.556C372.273 67.984 371.447 68.978 370.103 68.978ZM378.441 70.168C380.135 70.168 381.283 69.342 381.619 67.872H380.387C380.163 68.656 379.491 69.076 378.469 69.076C377.167 69.076 376.411 68.278 376.313 66.836L381.605 66.822V66.332C381.605 64.302 380.331 62.958 378.385 62.958C376.397 62.958 375.039 64.442 375.039 66.584C375.039 68.712 376.425 70.168 378.441 70.168ZM378.385 64.064C379.547 64.064 380.289 64.82 380.289 65.954H376.341C376.509 64.75 377.237 64.064 378.385 64.064ZM384.419 70V59.696H383.103V70H384.419ZM387 61.53C387.476 61.53 387.868 61.138 387.868 60.662C387.868 60.172 387.476 59.794 387 59.794C386.524 59.794 386.132 60.172 386.132 60.662C386.132 61.138 386.524 61.53 387 61.53ZM386.356 70H387.672V63.154H386.356V70ZM389.135 66.584C389.135 68.74 390.465 70.168 392.481 70.168C394.133 70.168 395.407 69.174 395.673 67.69H394.357C394.119 68.502 393.419 68.992 392.481 68.992C391.235 68.992 390.437 68.04 390.437 66.57C390.437 65.086 391.291 64.134 392.537 64.134C393.419 64.134 394.119 64.596 394.343 65.464H395.659C395.421 63.938 394.217 62.958 392.495 62.958C390.493 62.958 389.135 64.442 389.135 66.584ZM397.705 61.53C398.181 61.53 398.573 61.138 398.573 60.662C398.573 60.172 398.181 59.794 397.705 59.794C397.229 59.794 396.837 60.172 396.837 60.662C396.837 61.138 397.229 61.53 397.705 61.53ZM397.061 70H398.377V63.154H397.061V70ZM399.84 66.57C399.84 68.684 401.352 70.168 403.41 70.168C405.454 70.168 406.966 68.684 406.966 66.57C406.966 64.456 405.454 62.972 403.41 62.972C401.352 62.972 399.84 64.456 399.84 66.57ZM401.17 66.57C401.17 65.142 402.08 64.148 403.41 64.148C404.726 64.148 405.65 65.142 405.65 66.57C405.65 67.998 404.726 68.992 403.41 68.992C402.08 68.992 401.17 67.998 401.17 66.57ZM412.991 63.154V66.766C412.991 68.236 412.333 69.006 411.129 69.006C410.121 69.006 409.491 68.446 409.491 66.976V63.154H408.175V67.41C408.175 69.09 409.071 70.168 410.667 70.168C411.675 70.168 412.585 69.678 412.977 68.964L413.117 70H414.293V63.154H412.991ZM415.505 68.012C415.505 69.314 416.527 70.168 418.137 70.168C419.761 70.168 420.881 69.342 420.881 68.04C420.881 67.018 420.307 66.486 419.145 66.206L417.941 65.912C417.269 65.744 416.933 65.436 416.933 64.974C416.933 64.344 417.395 63.98 418.221 63.98C419.019 63.98 419.481 64.414 419.509 65.1H420.769C420.741 63.798 419.761 62.958 418.263 62.958C416.751 62.958 415.687 63.756 415.687 65.016C415.687 66.024 416.261 66.626 417.479 66.92L418.683 67.2C419.397 67.382 419.621 67.662 419.621 68.124C419.621 68.754 419.089 69.132 418.165 69.132C417.297 69.132 416.765 68.712 416.765 68.012H415.505ZM146.548 79.878H145.176V90H146.548V79.878ZM149.916 80.732C150 80.102 149.566 79.836 149.216 79.836C148.81 79.836 148.376 80.102 148.46 80.732L148.824 83.63H149.58L149.916 80.732ZM153.515 90H154.817L157.673 83.154H156.301L154.775 86.976C154.537 87.578 154.313 88.166 154.201 88.614C154.089 88.194 153.893 87.62 153.655 86.976L152.157 83.154H150.757L153.515 90ZM161.359 90.168C163.053 90.168 164.201 89.342 164.537 87.872H163.305C163.081 88.656 162.409 89.076 161.387 89.076C160.085 89.076 159.329 88.278 159.231 86.836L164.523 86.822V86.332C164.523 84.302 163.249 82.958 161.303 82.958C159.315 82.958 157.957 84.442 157.957 86.584C157.957 88.712 159.343 90.168 161.359 90.168ZM161.303 84.064C162.465 84.064 163.207 84.82 163.207 85.954H159.259C159.427 84.75 160.155 84.064 161.303 84.064ZM172.775 90.168C174.469 90.168 175.617 89.342 175.953 87.872H174.721C174.497 88.656 173.825 89.076 172.803 89.076C171.501 89.076 170.745 88.278 170.647 86.836L175.939 86.822V86.332C175.939 84.302 174.665 82.958 172.719 82.958C170.731 82.958 169.373 84.442 169.373 86.584C169.373 88.712 170.759 90.168 172.775 90.168ZM172.719 84.064C173.881 84.064 174.623 84.82 174.623 85.954H170.675C170.843 84.75 171.571 84.064 172.719 84.064ZM179.095 90H180.397L183.253 83.154H181.881L180.355 86.976C180.117 87.578 179.893 88.166 179.781 88.614C179.669 88.194 179.473 87.62 179.235 86.976L177.737 83.154H176.337L179.095 90ZM186.939 90.168C188.633 90.168 189.781 89.342 190.117 87.872H188.885C188.661 88.656 187.989 89.076 186.967 89.076C185.665 89.076 184.909 88.278 184.811 86.836L190.103 86.822V86.332C190.103 84.302 188.829 82.958 186.883 82.958C184.895 82.958 183.537 84.442 183.537 86.584C183.537 88.712 184.923 90.168 186.939 90.168ZM186.883 84.064C188.045 84.064 188.787 84.82 188.787 85.954H184.839C185.007 84.75 185.735 84.064 186.883 84.064ZM195.493 83.098C195.227 83.042 195.031 83.014 194.793 83.014C193.855 83.014 193.169 83.49 192.889 84.204L192.805 83.168H191.573V90H192.889V86.374C192.889 85.058 193.659 84.302 194.905 84.302H195.493V83.098ZM201.872 89.986V86.262C201.872 85.086 202.558 84.162 203.832 84.162C204.812 84.162 205.47 84.722 205.47 86.108V90H206.786V85.814C206.786 84.064 205.946 82.958 204.196 82.958C203.132 82.958 202.306 83.462 201.872 84.204V79.696H200.556V89.986H201.872ZM210.61 90.168C211.716 90.168 212.654 89.678 213.004 88.894L213.144 90H214.264V85.702C214.264 83.854 213.116 82.958 211.422 82.958C209.658 82.958 208.482 83.896 208.482 85.324H209.63C209.63 84.498 210.26 84.008 211.366 84.008C212.29 84.008 212.976 84.414 212.976 85.562V85.758L210.82 85.926C209.21 86.052 208.272 86.836 208.272 88.096C208.272 89.342 209.14 90.168 210.61 90.168ZM210.988 89.146C210.134 89.146 209.602 88.782 209.602 88.054C209.602 87.382 210.078 86.934 211.24 86.822L212.99 86.682V87.046C212.99 88.334 212.234 89.146 210.988 89.146ZM218.831 90.168C219.923 90.168 220.847 89.692 221.295 88.754L221.407 90H222.583V79.696H221.281V84.26C220.819 83.42 219.937 82.958 218.887 82.958C216.857 82.958 215.639 84.498 215.639 86.598C215.639 88.684 216.843 90.168 218.831 90.168ZM219.097 88.978C217.753 88.978 216.969 87.97 216.969 86.556C216.969 85.156 217.753 84.148 219.097 84.148C220.441 84.148 221.267 85.156 221.267 86.556C221.267 87.984 220.441 88.978 219.097 88.978ZM225.461 90.168C225.993 90.168 226.455 89.72 226.455 89.188C226.455 88.642 225.993 88.194 225.461 88.194C224.915 88.194 224.453 88.642 224.453 89.188C224.453 89.72 224.915 90.168 225.461 90.168ZM228.954 80.9C228.954 80.144 228.506 79.682 227.946 79.682C227.386 79.682 227.022 80.074 227.022 80.606C227.022 81.152 227.386 81.46 227.806 81.46C227.974 81.46 228.1 81.432 228.198 81.376C228.198 81.824 227.806 82.188 227.26 82.286V82.874C228.24 82.748 228.954 81.922 228.954 80.9ZM231.46 80.9C231.46 80.144 231.012 79.682 230.438 79.682C229.892 79.682 229.514 80.074 229.514 80.606C229.514 81.152 229.878 81.46 230.312 81.46C230.48 81.46 230.592 81.432 230.69 81.376C230.69 81.824 230.298 82.188 229.752 82.286V82.874C230.746 82.748 231.46 81.922 231.46 80.9Z" fill="#333F72"/>
<path d="M144.84 114.85H148.998L149.18 113.73H145.008L144.84 114.85ZM158.706 118.154C160.96 118.154 162.57 117.02 163.382 114.794H161.926C161.296 116.236 160.26 116.866 158.748 116.866C156.97 116.866 155.864 115.592 155.864 113.632C155.864 110.958 157.446 108.984 159.77 108.984C161.184 108.984 162.262 109.782 162.444 111.14H163.83C163.718 109.124 162.15 107.71 159.882 107.71C156.774 107.71 154.478 110.216 154.478 113.688C154.478 116.334 156.102 118.154 158.706 118.154ZM165.517 118L166.091 114.388C166.315 112.96 167.155 112.106 168.317 112.106C169.395 112.106 169.913 112.82 169.703 114.108L169.087 118H170.333L171.005 113.814C171.257 112.162 170.305 110.958 168.751 110.958C167.771 110.958 167.057 111.364 166.441 112.246L167.155 107.696H165.895L164.271 118H165.517ZM174.148 118.168C175.212 118.168 176.178 117.678 176.64 116.88L176.584 118H177.676L178.362 113.688C178.628 112.022 177.648 110.972 175.828 110.972C174.12 110.972 173.014 111.826 172.776 113.324H173.938C174.078 112.442 174.68 111.994 175.716 111.994C176.794 111.994 177.312 112.554 177.13 113.576L177.102 113.758L174.96 113.926C173.154 114.08 172.118 114.948 172.118 116.334C172.118 117.44 172.93 118.168 174.148 118.168ZM174.596 117.174C173.84 117.174 173.392 116.81 173.392 116.222C173.392 115.41 173.994 114.906 175.226 114.808L176.976 114.668L176.92 115.032C176.724 116.348 175.828 117.174 174.596 117.174ZM184.402 111.098C184.178 111.042 183.94 111.014 183.702 111.014C182.806 111.014 182.064 111.504 181.658 112.232L181.742 111.154H180.594L179.502 118H180.762L181.35 114.332C181.546 113.016 182.456 112.26 183.646 112.26H184.22L184.402 111.098ZM185.835 118L187.459 107.696H186.199L184.575 118H185.835ZM189.747 109.502C190.251 109.502 190.713 109.026 190.713 108.508C190.713 108.102 190.419 107.794 189.999 107.794C189.481 107.794 189.019 108.27 189.019 108.788C189.019 109.194 189.327 109.502 189.747 109.502ZM187.773 118H189.033L190.111 111.154H188.865L187.773 118ZM193.97 118.168C195.468 118.168 196.77 117.286 197.232 115.886H195.972C195.664 116.656 194.908 117.104 194.012 117.104C192.878 117.104 192.192 116.32 192.192 115.046C192.192 114.962 192.192 114.892 192.192 114.822L197.4 114.808L197.47 114.332C197.778 112.372 196.644 110.972 194.698 110.972C192.584 110.972 190.96 112.778 190.96 115.116C190.96 116.964 192.15 118.168 193.97 118.168ZM194.642 112.036C195.776 112.036 196.448 112.806 196.266 113.968H192.346C192.682 112.82 193.564 112.036 194.642 112.036ZM200.084 117.188C200.084 116.6 199.734 116.222 199.244 116.222C198.656 116.222 198.166 116.726 198.166 117.328C198.166 117.734 198.474 118.014 198.88 118.014C199.048 118.014 199.16 117.986 199.258 117.93C199.202 118.336 198.74 118.714 198.166 118.84L198.068 119.414C199.16 119.26 200.084 118.238 200.084 117.188ZM211.887 118L212.083 116.768H207.351L207.869 113.506H212.125L212.307 112.316H208.065L208.583 109.11H213.287L213.483 107.878H207.449L205.853 118H211.887ZM216.454 118.168C217.532 118.168 218.358 117.692 218.946 116.782L218.862 118H220.01L221.634 107.696H220.374L219.646 112.4C219.324 111.518 218.442 110.972 217.336 110.972C215.264 110.972 213.71 112.722 213.71 115.13C213.71 116.922 214.858 118.168 216.454 118.168ZM216.79 117.048C215.684 117.048 214.984 116.264 214.984 115.06C214.984 113.38 216.076 112.092 217.49 112.092C218.652 112.092 219.324 112.82 219.324 114.038C219.324 115.732 218.204 117.048 216.79 117.048ZM223.872 109.502C224.376 109.502 224.838 109.026 224.838 108.508C224.838 108.102 224.544 107.794 224.124 107.794C223.606 107.794 223.144 108.27 223.144 108.788C223.144 109.194 223.452 109.502 223.872 109.502ZM221.898 118H223.158L224.236 111.154H222.99L221.898 118ZM226.891 118L227.815 112.218H229.131L229.299 111.154H227.983L228.319 109.012H227.059L226.723 111.154H225.407L225.239 112.218H226.555L225.645 118H226.891ZM229.35 115.06C229.35 116.908 230.624 118.168 232.486 118.168C234.684 118.168 236.434 116.348 236.434 114.08C236.434 112.232 235.174 110.972 233.312 110.972C231.114 110.972 229.35 112.792 229.35 115.06ZM230.638 114.976C230.638 113.38 231.8 112.092 233.214 112.092C234.418 112.092 235.16 112.904 235.16 114.164C235.16 115.76 233.998 117.048 232.584 117.048C231.38 117.048 230.638 116.25 230.638 114.976ZM242.206 111.098C241.982 111.042 241.744 111.014 241.506 111.014C240.61 111.014 239.868 111.504 239.462 112.232L239.546 111.154H238.398L237.306 118H238.566L239.154 114.332C239.35 113.016 240.26 112.26 241.45 112.26H242.024L242.206 111.098ZM243.246 117.188C243.246 116.6 242.896 116.222 242.406 116.222C241.818 116.222 241.328 116.726 241.328 117.328C241.328 117.734 241.636 118.014 242.042 118.014C242.21 118.014 242.322 117.986 242.42 117.93C242.364 118.336 241.902 118.714 241.328 118.84L241.23 119.414C242.322 119.26 243.246 118.238 243.246 117.188ZM250.331 118L251.577 110.09L255.427 118H256.729L258.339 107.878H257.023L255.777 115.788L251.927 107.878H250.611L249.015 118H250.331ZM262.045 113.884L261.401 118H262.703L263.361 113.884L267.631 107.878H266.133L263.263 111.966C263.109 112.19 262.983 112.386 262.857 112.624C262.801 112.372 262.717 112.162 262.647 111.966L261.051 107.878H259.651L262.045 113.884ZM271.543 109.096H274.511L273.097 118H274.413L275.827 109.096H278.795L278.977 107.878H271.725L271.543 109.096ZM280.515 109.502C281.019 109.502 281.481 109.026 281.481 108.508C281.481 108.102 281.187 107.794 280.767 107.794C280.249 107.794 279.787 108.27 279.787 108.788C279.787 109.194 280.095 109.502 280.515 109.502ZM278.541 118H279.801L280.879 111.154H279.633L278.541 118ZM282.945 118L283.589 113.912C283.771 112.806 284.499 112.106 285.479 112.106C286.417 112.106 286.907 112.792 286.739 113.814L286.067 118H287.327L287.971 113.926C288.153 112.806 288.881 112.106 289.847 112.106C290.813 112.106 291.275 112.764 291.107 113.828L290.463 118H291.709L292.409 113.534C292.633 112.05 291.737 110.972 290.267 110.972C289.231 110.972 288.349 111.518 287.901 112.372C287.691 111.49 287.005 110.972 285.997 110.972C285.115 110.972 284.331 111.392 283.869 112.078L283.897 111.154H282.777L281.685 118H282.945ZM296.577 118.168C298.075 118.168 299.377 117.286 299.839 115.886H298.579C298.271 116.656 297.515 117.104 296.619 117.104C295.485 117.104 294.799 116.32 294.799 115.046C294.799 114.962 294.799 114.892 294.799 114.822L300.007 114.808L300.077 114.332C300.385 112.372 299.251 110.972 297.305 110.972C295.191 110.972 293.567 112.778 293.567 115.116C293.567 116.964 294.757 118.168 296.577 118.168ZM297.249 112.036C298.383 112.036 299.055 112.806 298.873 113.968H294.953C295.289 112.82 296.171 112.036 297.249 112.036ZM300.669 116.04C300.669 117.314 301.705 118.168 303.217 118.168C304.883 118.168 305.961 117.314 305.961 116.012C305.961 115.158 305.513 114.626 304.519 114.29L303.399 113.912C302.811 113.702 302.545 113.394 302.545 112.946C302.545 112.33 303.035 111.966 303.819 111.966C304.617 111.966 305.037 112.344 305.051 113.1H306.283C306.283 111.812 305.359 110.972 303.903 110.972C302.349 110.972 301.327 111.798 301.327 113.044C301.327 113.926 301.845 114.5 302.797 114.822L303.931 115.2C304.519 115.396 304.729 115.648 304.729 116.124C304.729 116.74 304.141 117.174 303.287 117.174C302.461 117.174 301.915 116.726 301.901 116.04H300.669Z" fill="#333F72"/>
</svg>
